<svg xmlns="http://www.w3.org/2000/svg" viewBox="0 0 512 512" style="height: 512px; width: 512px;"><g class="" transform="translate(0,0)" style=""><path d="M256 50c-21.6 0-39 17.35-39 39 0 21.6 17.4 39 39 39s39-17.4 39-39c0-21.65-17.4-39-39-39zm-48 89c-21.6 0-39 17.4-39 39s17.4 39 39 39 39-17.4 39-39-17.4-39-39-39zm96 0c-21.6 0-39 17.4-39 39s17.4 39 39 39 39-17.4 39-39-17.4-39-39-39zm-144 90c-21.6 0-39 17.4-39 39s17.4 39 39 39 39-17.4 39-39-17.4-39-39-39zm96 0c-21.6 0-39 17.4-39 39s17.4 39 39 39 39-17.4 39-39-17.4-39-39-39zm96 0c-21.6 0-39 17.4-39 39s17.4 39 39 39 39-17.4 39-39-17.4-39-39-39zm-240 89.4c-21.65 0-39 17.4-39 39s17.35 39 39 39c21.6 0 39-17.4 39-39s-17.4-39-39-39zm96 0c-21.6 0-39 17.4-39 39s17.4 39 39 39 39-17.4 39-39-17.4-39-39-39zm96 0c-21.6 0-39 17.4-39 39s17.4 39 39 39 39-17.4 39-39-17.4-39-39-39zm96 0c-21.6 0-39 17.4-39 39s17.4 39 39 39 39-17.4 39-39-17.4-39-39-39zM64 409c-21.65 0-39 17.4-39 39s17.35 39 39 39 39-17.4 39-39-17.35-39-39-39zm96 0c-21.6 0-39 17.4-39 39s17.4 39 39 39 39-17.4 39-39-17.4-39-39-39zm96 0c-21.6 0-39 17.4-39 39s17.4 39 39 39 39-17.4 39-39-17.4-39-39-39zm96 0c-21.6 0-39 17.4-39 39s17.4 39 39 39 39-17.4 39-39-17.4-39-39-39zm96 0c-21.6 0-39 17.4-39 39s17.4 39 39 39 39-17.4 39-39-17.4-39-39-39z" fill="#404040" fill-opacity="1"></path></g><g class="" transform="translate(130,218)" style=""><g><circle cx="128" cy="128" r="128" fill="#404040" fill-opacity="1"></circle><circle stroke="#fff" stroke-opacity="1" fill="#404040" fill-opacity="1" stroke-width="18" cx="128" cy="128" r="101"></circle><path fill="#fff" fill-opacity="1" d="M96 196h64v-56h36l-68-88-68 88h36z"></path></g></g></svg>