<?xml version="1.0" encoding="UTF-8" standalone="no"?>
<!-- Generator: Adobe Illustrator 16.0.0, SVG Export Plug-In . SVG Version: 6.00 Build 0)  -->

<svg
   version="1.1"
   id="Layer_1"
   x="0px"
   y="0px"
   width="512"
   height="512"
   viewBox="0 0 512 512"
   enable-background="new 0 0 216 216"
   xml:space="preserve"
   sodipodi:docname="SRP_Favicon_Monogram.svg"
   inkscape:version="1.2 (dc2aedaf03, 2022-05-15)"
   xmlns:inkscape="http://www.inkscape.org/namespaces/inkscape"
   xmlns:sodipodi="http://sodipodi.sourceforge.net/DTD/sodipodi-0.dtd"
   xmlns="http://www.w3.org/2000/svg"
   xmlns:svg="http://www.w3.org/2000/svg"><defs
   id="defs19" /><sodipodi:namedview
   id="namedview17"
   pagecolor="#505050"
   bordercolor="#eeeeee"
   borderopacity="1"
   inkscape:showpageshadow="0"
   inkscape:pageopacity="0"
   inkscape:pagecheckerboard="0"
   inkscape:deskcolor="#505050"
   showgrid="false"
   inkscape:zoom="2.3773148"
   inkscape:cx="255.75073"
   inkscape:cy="316.74391"
   inkscape:window-width="2560"
   inkscape:window-height="1346"
   inkscape:window-x="-11"
   inkscape:window-y="-11"
   inkscape:window-maximized="1"
   inkscape:current-layer="Layer_1" />
<g
   id="g6"
   transform="matrix(2.46191,0,0,2.46191,-6.5737114,-10.080032)">
	<polygon
   fill="#6a5744"
   stroke="#342210"
   stroke-width="6.6397"
   stroke-miterlimit="10"
   points="107.793,8.39 18.244,58.084 18.244,157.477 197.343,58.084 "
   id="polygon2" />
	<polygon
   fill="#2a1c0e"
   stroke="#342210"
   stroke-width="6.6397"
   stroke-miterlimit="10"
   points="18.244,157.477 107.793,207.171 197.343,157.477 197.343,58.084 "
   id="polygon4" />
</g>
<g
   id="g14"
   transform="matrix(2.46191,0,0,2.46191,-6.5737114,-10.080032)">
	<path
   fill="#ffffff"
   stroke="#ffffff"
   stroke-width="3"
   stroke-miterlimit="10"
   d="m 30.751,132.526 c -1.202,-0.518 -1.46,-0.86 -1.46,-2.497 0,-3.959 0.346,-8.521 0.432,-9.727 0,-1.118 0.341,-1.893 0.946,-1.893 0.688,0 0.773,0.688 0.773,1.204 0,0.946 0.26,2.496 0.688,3.788 1.634,5.424 7.318,7.23 12.052,7.23 6.544,0 10.504,-4.133 10.504,-9.297 0,-3.185 -0.778,-6.371 -7.491,-10.331 l -4.393,-2.58 C 33.85,103.171 30.924,98.264 30.924,91.808 c 0,-8.953 8.611,-14.721 19.11,-14.721 4.907,0 8.78,0.689 10.764,1.206 0.688,0.171 1.029,0.43 1.029,0.947 0,0.946 -0.255,3.013 -0.255,8.779 0,1.55 -0.346,2.325 -0.947,2.325 -0.519,0 -0.778,-0.432 -0.778,-1.292 0,-0.687 -0.342,-2.926 -1.98,-4.82 -1.115,-1.377 -3.527,-3.443 -8.433,-3.443 -5.425,0 -10.332,2.84 -10.332,7.833 0,3.271 1.207,5.853 8.006,9.642 l 3.1,1.72 c 9.985,5.509 13.085,11.105 13.085,17.734 0,5.423 -2.066,9.813 -7.574,13.688 -3.618,2.581 -8.611,3.013 -12.657,3.013 -4.388,0.002 -9.039,-0.43 -12.311,-1.893 z"
   id="path8" />
	<path
   fill="#ffffff"
   stroke="#ffffff"
   stroke-width="3"
   stroke-miterlimit="10"
   d="m 84.811,99.299 c 0,-11.104 0,-13.17 -0.086,-15.495 -0.168,-2.496 -0.86,-3.272 -3.268,-3.959 -0.604,-0.173 -1.893,-0.259 -3.013,-0.259 -0.774,0 -1.293,-0.258 -1.293,-0.774 0,-0.516 0.602,-0.689 1.721,-0.689 3.96,0 8.784,0.172 10.331,0.172 2.581,0 9.472,-0.172 11.793,-0.172 4.82,0 10.331,0.43 14.377,3.099 2.152,1.463 5.338,5.166 5.338,10.072 0,5.423 -3.099,10.243 -10.504,16.182 6.713,8.265 12.053,14.893 16.611,19.457 4.221,4.217 6.892,4.561 8.094,4.819 0.777,0.174 1.205,0.174 1.811,0.174 0.601,0 0.947,0.429 0.947,0.772 0,0.604 -0.519,0.774 -1.467,0.774 h -7.23 c -4.22,0 -6.281,-0.431 -8.262,-1.464 -3.271,-1.634 -6.112,-5.076 -10.331,-10.759 -3.013,-3.96 -6.198,-8.866 -7.145,-9.985 -0.432,-0.43 -0.861,-0.517 -1.379,-0.517 l -6.8,-0.173 c -0.346,0 -0.601,0.173 -0.601,0.604 v 1.032 c 0,6.8 0.086,12.482 0.428,15.582 0.259,2.152 0.605,3.529 2.926,3.873 1.12,0.173 2.758,0.26 3.705,0.26 0.601,0 0.947,0.429 0.947,0.772 0,0.518 -0.605,0.774 -1.552,0.774 -4.387,0 -10.673,-0.257 -11.792,-0.257 -1.461,0 -6.285,0.257 -9.298,0.257 -0.947,0 -1.461,-0.257 -1.461,-0.774 0,-0.344 0.259,-0.772 1.206,-0.772 1.115,0 1.98,-0.087 2.667,-0.26 1.547,-0.344 1.98,-1.721 2.239,-3.873 0.342,-3.1 0.342,-8.866 0.342,-15.582 V 99.299 Z m 9.644,5.68 c 0,0.776 0.173,1.033 0.688,1.292 1.634,0.517 3.873,0.687 5.766,0.687 3.014,0 4.047,-0.257 5.339,-1.204 2.326,-1.636 4.906,-4.822 4.906,-10.848 0,-10.329 -7.059,-12.998 -11.533,-12.998 -1.898,0 -3.704,0.086 -4.478,0.259 -0.515,0.173 -0.688,0.43 -0.688,1.033 z"
   id="path10" />
	<path
   fill="#ffffff"
   stroke="#ffffff"
   stroke-width="3"
   stroke-miterlimit="10"
   d="m 149.025,99.299 c 0,-11.104 0,-13.17 -0.086,-15.495 -0.169,-2.496 -0.86,-3.272 -3.268,-3.959 -0.605,-0.173 -1.895,-0.259 -3.015,-0.259 -0.773,0 -1.291,-0.258 -1.291,-0.774 0,-0.516 0.6,-0.689 1.72,-0.689 3.959,0 8.784,0.172 10.933,0.172 3.099,0 9.125,-0.172 12.57,-0.172 9.467,0 12.912,3.099 14.117,4.132 1.635,1.549 3.788,4.82 3.788,8.779 0,10.331 -8.266,17.734 -19.024,17.734 -0.347,0 -1.895,0 -2.24,-0.087 -0.428,0 -0.946,-0.257 -0.946,-0.774 0,-0.603 0.86,-0.949 2.499,-0.949 4.214,0 10.158,-4.39 10.158,-11.878 0,-2.41 -0.26,-7.23 -4.479,-10.846 -2.752,-2.41 -5.853,-2.755 -7.572,-2.755 -1.119,0 -2.586,0.086 -3.273,0.346 -0.432,0.171 -0.604,0.601 -0.604,1.376 v 29.01 c 0,6.716 0,12.482 0.345,15.668 0.259,2.066 0.688,3.443 2.927,3.787 1.12,0.173 2.754,0.26 3.874,0.26 0.858,0 1.205,0.429 1.205,0.772 0,0.518 -0.602,0.774 -1.379,0.774 -5.075,0 -10.413,-0.257 -12.394,-0.257 -1.72,0 -6.545,0.257 -9.558,0.257 -0.946,0 -1.461,-0.257 -1.461,-0.774 0,-0.344 0.26,-0.772 1.206,-0.772 1.115,0 1.98,-0.087 2.668,-0.26 1.548,-0.344 1.979,-1.721 2.239,-3.873 0.341,-3.1 0.341,-8.866 0.341,-15.582 z"
   id="path12" />
</g>
</svg>
