<?xml version="1.0" encoding="UTF-8" standalone="no"?>
<!-- Created with Inkscape (http://www.inkscape.org/) -->

<svg
   xmlns:dc="http://purl.org/dc/elements/1.1/"
   xmlns:cc="http://creativecommons.org/ns#"
   xmlns:rdf="http://www.w3.org/1999/02/22-rdf-syntax-ns#"
   xmlns:svg="http://www.w3.org/2000/svg"
   xmlns="http://www.w3.org/2000/svg"
   xmlns:sodipodi="http://sodipodi.sourceforge.net/DTD/sodipodi-0.dtd"
   xmlns:inkscape="http://www.inkscape.org/namespaces/inkscape"
   width="600"
   height="100"
   id="svg2"
   version="1.1"
   inkscape:version="0.48.2 r9819"
   sodipodi:docname="TitleBanner.svg">
  <defs
     id="defs4">
    <filter
       id="filter3068"
       inkscape:menu-tooltip="In and out glow with a possible offset and colorizable flood"
       inkscape:menu="Shadows and Glows"
       inkscape:label="Cutout Glow"
       color-interpolation-filters="sRGB">
      <feOffset
         id="feOffset3070"
         dy="3"
         dx="3" />
      <feGaussianBlur
         id="feGaussianBlur3072"
         result="result8"
         stdDeviation="3" />
      <feFlood
         id="feFlood3074"
         flood-color="rgb(0,0,0)"
         flood-opacity="1"
         in="result8"
         result="result10" />
      <feComposite
         id="feComposite3076"
         in2="SourceGraphic"
         operator="in"
         in="result10"
         result="result9" />
      <feBlend
         id="feBlend3078"
         in2="result9"
         mode="normal"
         in="result8" />
    </filter>
    <filter
       id="filter3068-1"
       inkscape:menu-tooltip="In and out glow with a possible offset and colorizable flood"
       inkscape:menu="Shadows and Glows"
       inkscape:label="Cutout Glow"
       color-interpolation-filters="sRGB">
      <feOffset
         id="feOffset3070-7"
         dy="3"
         dx="3" />
      <feGaussianBlur
         id="feGaussianBlur3072-4"
         result="result8"
         stdDeviation="3" />
      <feFlood
         id="feFlood3074-0"
         flood-color="rgb(0,0,0)"
         flood-opacity="1"
         in="result8"
         result="result10" />
      <feComposite
         id="feComposite3076-9"
         in2="SourceGraphic"
         operator="in"
         in="result10"
         result="result9" />
      <feBlend
         id="feBlend3078-4"
         in2="result9"
         mode="normal"
         in="result8" />
    </filter>
  </defs>
  <sodipodi:namedview
     id="base"
     pagecolor="#ffffff"
     bordercolor="#666666"
     borderopacity="1.0"
     inkscape:pageopacity="0.0"
     inkscape:pageshadow="2"
     inkscape:zoom="1.7828125"
     inkscape:cx="109.06791"
     inkscape:cy="66.077624"
     inkscape:document-units="px"
     inkscape:current-layer="layer1"
     showgrid="false"
     inkscape:window-width="1920"
     inkscape:window-height="1058"
     inkscape:window-x="1912"
     inkscape:window-y="-8"
     inkscape:window-maximized="1" />
  <metadata
     id="metadata7">
    <rdf:RDF>
      <cc:Work
         rdf:about="">
        <dc:format>image/svg+xml</dc:format>
        <dc:type
           rdf:resource="http://purl.org/dc/dcmitype/StillImage" />
        <dc:title />
      </cc:Work>
    </rdf:RDF>
  </metadata>
  <g
     inkscape:label="Layer 1"
     inkscape:groupmode="layer"
     id="layer1"
     transform="translate(0,-952.36218)">
    <path
       style="fill:#361f00;fill-opacity:1;stroke:#361f00;stroke-opacity:1;stroke-width:2;stroke-miterlimit:4;stroke-dasharray:none"
       d="m 259.60117,997.94159 c -6.21026,-1.95378 -10.26903,-3.54533 -11.83966,-4.64262 -1.06124,-0.74141 -2.01206,-1.82201 -3.35952,-3.81805 -2.38894,-3.53884 -2.55122,-4.32982 -1.37744,-6.7141 0.87522,-1.77782 4.90499,-7.27335 9.88445,-13.47975 4.02568,-5.01761 2.97781,-4.69621 8.84757,-2.71374 9.07492,3.06499 13.41114,5.10179 14.88475,6.99167 2.12821,2.72936 3.43312,4.93246 3.43312,5.79617 0,1.18024 -0.97766,2.67458 -5.11862,7.82383 -6.09128,7.57444 -10.16298,11.97904 -11.05526,11.95917 -0.28228,-0.006 -2.21701,-0.54745 -4.29939,-1.20258 z"
       id="path4010"
       inkscape:connector-curvature="0" />
    <path
       style="fill:#361f00;fill-opacity:1;stroke:#361f00;stroke-opacity:1;stroke-width:2;stroke-miterlimit:4;stroke-dasharray:none"
       d="m 217.53281,1003.3447 c -3.29574,-0.4373 -5.51641,-1.5739 -6.29958,-3.2243 -0.5511,-1.16168 -0.55566,-4.55979 -0.0131,-9.79915 0.46631,-4.50351 0.53955,-7.99299 0.16776,-7.99299 -0.14046,0 -2.88542,1.02285 -6.09991,2.273 -11.36373,4.41948 -18.57274,6.98204 -19.64194,6.98204 -0.35532,0 -0.64604,-0.16205 -0.64604,-0.36011 0,-0.8532 4.7924,-29.06683 5.13143,-30.20957 0.29558,-0.99627 0.48866,-1.24316 0.91685,-1.17235 0.97308,0.16091 4.36018,2.25253 10.35774,6.39617 3.23892,2.23772 7.02507,4.72276 8.41367,5.5223 l 2.52474,1.45371 11.078,0.17819 c 11.77912,0.18946 13.45665,0.36324 14.85362,1.53871 1.36353,1.14734 1.5583,2.19601 1.50423,8.09905 -0.0529,5.77455 -0.73227,15.72455 -1.2331,18.0602 -0.52397,2.4431 -0.36815,2.4066 -10.48422,2.4552 -4.78893,0.023 -9.52747,-0.067 -10.5301,-0.2001 z"
       id="path4012"
       inkscape:connector-curvature="0" />
    <g
       transform="matrix(1.0233469,0,0,0.97718576,-13.461876,-0.56091162)"
       style="font-size:39.15885544px;font-style:normal;font-variant:normal;font-weight:normal;font-stretch:normal;line-height:125%;letter-spacing:0px;word-spacing:0px;fill:#ffffff;fill-opacity:1;stroke:#000000;stroke-opacity:1;font-family:Trajan Pro;-inkscape-font-specification:Trajan Pro"
       id="text2995">
      <path
         d="m 44.921581,1041.1144 c 1.070739,0 2.115197,-0.1241 3.133377,-0.3723 1.018155,-0.2482 1.944703,-0.6722 2.779648,-1.2721 0.678763,-0.47 1.233656,-0.9988 1.664682,-1.5864 0.430991,-0.5876 0.77038,-1.1815 1.018168,-1.7818 0.247752,-0.6003 0.417447,-1.1745 0.509084,-1.7226 0.0916,-0.5482 0.13741,-1.0182 0.137429,-1.4102 -1.9e-5,-0.7831 -0.07849,-1.5336 -0.235421,-2.2514 -0.156967,-0.7178 -0.450745,-1.4356 -0.881337,-2.1535 -0.430628,-0.7178 -1.017987,-1.4683 -1.762077,-2.2514 -0.744123,-0.7832 -1.69019,-1.6316 -2.838205,-2.5454 l -1.09704,-0.8617 c -0.940104,-0.7313 -1.716875,-1.384 -2.330315,-1.958 -0.61346,-0.574 -1.102826,-1.1092 -1.468099,-1.6055 -0.36529,-0.4964 -0.619832,-0.9859 -0.763626,-1.4687 -0.14381,-0.4828 -0.215711,-0.9983 -0.215704,-1.5464 -7e-6,-1.4356 0.463466,-2.5516 1.390421,-3.3479 0.926938,-0.7963 2.06919,-1.1944 3.426759,-1.1944 0.887498,0 1.631406,0.085 2.231725,0.2545 0.60029,0.1697 1.089855,0.3721 1.468696,0.6071 0.378809,0.235 0.659443,0.4699 0.841901,0.7044 0.182425,0.2347 0.299936,0.4046 0.352535,0.5097 0.13064,0.2088 0.241578,0.5285 0.332817,0.959 0.0912,0.4307 0.149959,0.7635 0.176267,0.9985 0.02627,0.157 0.05236,0.2811 0.07827,0.3722 0.02587,0.091 0.104149,0.1369 0.234824,0.1369 0.182423,0 0.273644,-0.3003 0.273662,-0.9011 -1.8e-5,-1.3312 0.02607,-2.3297 0.07828,-2.9953 0.05216,-0.6656 0.07826,-1.0506 0.07827,-1.155 -1.9e-5,-0.1832 -0.130277,-0.2749 -0.390776,-0.2749 -0.156966,0 -0.333233,-0.013 -0.528802,-0.039 -0.195605,-0.026 -0.476238,-0.078 -0.841901,-0.156 -0.496354,-0.1306 -1.038102,-0.2286 -1.625246,-0.294 -0.587174,-0.065 -1.259579,-0.098 -2.017216,-0.098 -1.252407,0 -2.374742,0.1697 -3.367007,0.509 -0.992285,0.3395 -1.840758,0.8225 -2.545421,1.449 -0.704678,0.6266 -1.246426,1.3705 -1.625246,2.2317 -0.37883,0.8613 -0.568243,1.8141 -0.568238,2.8586 -5e-6,0.6788 0.0719,1.338 0.215703,1.9777 0.143798,0.6398 0.404912,1.3054 0.783345,1.9969 0.378421,0.6916 0.894077,1.4028 1.546971,2.1338 0.652878,0.731 1.501152,1.5274 2.544823,2.3894 l 1.762675,1.4484 c 0.834917,0.7051 1.539588,1.3383 2.114014,1.8995 0.574398,0.5613 1.037871,1.1096 1.390421,1.645 0.352519,0.5354 0.607061,1.0837 0.763626,1.645 0.156534,0.5612 0.234808,1.1809 0.234825,1.8588 -1.7e-5,0.627 -0.117528,1.2538 -0.352535,1.8804 -0.235039,0.6266 -0.581001,1.1813 -1.037887,1.6641 -0.456915,0.4828 -1.037701,0.8809 -1.742359,1.1944 -0.704683,0.3135 -1.527065,0.4703 -2.467146,0.4703 -0.652498,0 -1.29204,-0.072 -1.918626,-0.2157 -0.626604,-0.1438 -1.20739,-0.3723 -1.742359,-0.6854 -0.534983,-0.3131 -0.985311,-0.7242 -1.350985,-1.2332 -0.365686,-0.5091 -0.626601,-1.1293 -0.782747,-1.8607 -0.05259,-0.2868 -0.08545,-0.5543 -0.09859,-0.8025 -0.01315,-0.2481 -0.01972,-0.4634 -0.01972,-0.6459 -4e-6,-0.2876 -0.09123,-0.4314 -0.273662,-0.4314 -0.182446,0 -0.286812,0.2091 -0.313099,0.6274 -0.0263,0.3131 -0.06553,0.8351 -0.117711,1.5661 -0.05219,0.7309 -0.07828,1.5924 -0.07827,2.5842 -4e-6,0.5219 0.02609,0.8676 0.07827,1.0373 0.05218,0.1697 0.222073,0.3199 0.509682,0.4506 0.808634,0.3919 1.656908,0.6662 2.544824,0.8227 0.887902,0.1566 1.788358,0.2349 2.701373,0.2349 z"
         id="path4019"
         inkscape:connector-curvature="0"
         style="stroke:#000000;stroke-opacity:1" />
      <path
         d="m 66.745281,1025.0197 c -9e-6,-1.2787 -9e-6,-2.3228 0,-3.1322 -9e-6,-0.8094 -9e-6,-1.4619 0,-1.9575 -9e-6,-0.5226 0.0066,-0.9339 0.01972,-1.2339 0.01314,-0.2999 0.01971,-0.5805 0.01972,-0.8419 0.05257,-0.6006 0.150565,-1.0315 0.293979,-1.2924 0.143394,-0.2609 0.450119,-0.4435 0.920175,-0.5479 0.208722,-0.053 0.365271,-0.079 0.469648,-0.079 0.130646,0 0.261303,0 0.391971,0 0.182431,0 0.273651,-0.091 0.273663,-0.2737 -1.2e-5,-0.1832 -0.182453,-0.2748 -0.547325,-0.2748 -0.261325,0 -0.581195,0.01 -0.959612,0.02 -0.378437,0.013 -0.75049,0.02 -1.116161,0.02 -0.339398,1e-4 -0.646123,0.01 -0.920176,0.02 -0.274069,0.013 -0.424245,0.02 -0.450528,0.02 -0.05259,0 -0.209337,-0.01 -0.470245,-0.02 -0.260923,-0.013 -0.57422,-0.02 -0.939894,-0.02 -0.339395,1e-4 -0.698303,-0.01 -1.076725,-0.02 -0.378432,-0.013 -0.71105,-0.02 -0.997853,-0.02 -0.365684,0 -0.548524,0.092 -0.548521,0.2748 -3e-6,0.1825 0.09122,0.2737 0.273663,0.2737 0.130653,0 0.287402,0.01 0.470246,0.02 0.182835,0.013 0.378622,0.046 0.587359,0.099 0.365675,0.078 0.626789,0.2542 0.783344,0.5282 0.156544,0.2741 0.261109,0.6983 0.313696,1.2727 0.02549,0.2614 0.04481,0.542 0.05796,0.8419 0.01314,0.3 0.01971,0.7113 0.01972,1.2339 -6e-6,0.4956 -6e-6,1.1481 0,1.9575 -6e-6,0.8094 -6e-6,1.8535 0,3.1322 l 0,5.8747 c -6e-6,1.6181 -0.01295,3.0538 -0.03884,4.3069 -0.0259,1.2532 -0.07828,2.2192 -0.157147,2.898 -0.05179,0.4963 -0.129866,0.8945 -0.234226,1.1944 -0.104372,0.3 -0.32625,0.489 -0.665634,0.5671 -0.156953,0.053 -0.333419,0.092 -0.5294,0.1183 -0.19599,0.026 -0.372058,0.039 -0.528205,0.039 -0.183242,0 -0.274861,0.091 -0.274857,0.2737 -4e-6,0.1824 0.182836,0.2736 0.54852,0.2736 0.26131,0 0.574607,-0.01 0.939894,-0.019 0.365276,-0.013 0.724184,-0.026 1.076725,-0.039 0.352528,-0.013 0.659253,-0.026 0.920176,-0.04 0.260908,-0.013 0.417656,-0.02 0.470245,-0.02 0.02628,0 0.176459,0.01 0.450528,0.02 0.274053,0.013 0.619815,0.026 1.037289,0.04 0.417455,0.013 0.874356,0.026 1.370703,0.039 0.496327,0.013 0.97912,0.019 1.448381,0.019 0.365668,0 0.548508,-0.091 0.54852,-0.2736 -1.2e-5,-0.1825 -0.09123,-0.2737 -0.273663,-0.2737 -0.156959,0 -0.391982,-0.013 -0.705069,-0.039 -0.31311,-0.026 -0.600316,-0.066 -0.861619,-0.1183 -0.521842,-0.078 -0.848086,-0.2671 -0.978733,-0.5671 -0.130666,-0.2999 -0.221887,-0.6981 -0.273662,-1.1944 -0.07888,-0.6788 -0.124891,-1.6448 -0.138027,-2.898 -0.01315,-1.2531 -0.01973,-2.6888 -0.01972,-4.3069 z"
         id="path4021"
         inkscape:connector-curvature="0"
         style="stroke:#000000;stroke-opacity:1" />
      <path
         d="m 102.28916,1015.8179 c -0.0781,-0.6007 -0.2478,-0.901 -0.50908,-0.9011 -0.18247,1e-4 -0.36531,0.1829 -0.54852,0.5486 l -10.023944,20.637 -10.417107,-20.6765 c -0.182449,-0.3393 -0.417074,-0.509 -0.703874,-0.5091 -0.209537,1e-4 -0.340194,0.1961 -0.391971,0.588 l -2.505986,21.7329 c -0.07888,0.6262 -0.176869,1.2004 -0.293978,1.7226 -0.117117,0.5222 -0.46288,0.8355 -1.037289,0.9399 -0.261317,0.053 -0.463675,0.085 -0.607077,0.099 -0.143406,0.013 -0.280436,0.02 -0.411091,0.02 -0.235025,0 -0.352537,0.078 -0.352535,0.2342 -2e-6,0.2088 0.195585,0.3131 0.586761,0.3131 0.235021,0 0.502708,-0.01 0.803063,-0.019 0.300348,-0.013 0.594127,-0.026 0.881337,-0.039 0.287202,-0.013 0.541744,-0.026 0.763626,-0.04 0.221873,-0.013 0.37185,-0.02 0.44993,-0.02 0.07807,0 0.228246,0.01 0.450528,0.02 0.22227,0.013 0.483385,0.026 0.783344,0.04 0.299947,0.013 0.626191,0.026 0.978733,0.039 0.352527,0.013 0.685343,0.019 0.99845,0.019 0.417456,0 0.626189,-0.1043 0.626198,-0.3131 -9e-6,-0.1561 -0.09123,-0.2342 -0.273663,-0.2342 -0.130666,0 -0.313505,-0.013 -0.54852,-0.039 -0.235032,-0.026 -0.495947,-0.079 -0.782747,-0.1566 -0.548129,-0.1306 -0.82219,-0.4441 -0.822183,-0.9405 -7e-6,-0.2868 -7e-6,-0.574 0,-0.8616 -7e-6,-0.2868 0.01314,-0.5608 0.03944,-0.8222 l 1.331267,-15.0371 0.15655,0 c 0.156142,0.3394 0.42363,0.9073 0.802465,1.7036 0.378816,0.7963 0.790106,1.6513 1.233872,2.5651 0.443745,0.9138 0.880927,1.8145 1.311549,2.702 0.430598,0.8875 0.77656,1.5926 1.037886,2.1152 0.20872,0.4437 0.495727,1.018 0.861022,1.7226 0.365268,0.7047 0.743695,1.4357 1.135282,2.1929 0.391557,0.7573 0.770183,1.4753 1.135879,2.154 0.365664,0.6788 0.666016,1.227 0.901055,1.6444 0.339373,0.5999 0.580769,1.0044 0.72419,1.2136 0.143387,0.2091 0.293563,0.3137 0.450528,0.3137 0.15693,0 0.307105,-0.111 0.450528,-0.3329 0.143385,-0.2218 0.397927,-0.6984 0.763626,-1.4298 l 8.301896,-16.9946 0.0777,0 1.64437,16.838 c 0.0525,0.3131 0.0657,0.5806 0.0394,0.8025 -0.0263,0.2219 -0.0917,0.346 -0.19599,0.3723 -0.15618,0.053 -0.23425,0.1442 -0.23423,0.2748 -2e-5,0.078 0.0587,0.1432 0.17627,0.1954 0.11748,0.052 0.38497,0.1042 0.80247,0.156 0.31307,0.026 0.75682,0.053 1.33126,0.079 0.57439,0.026 1.16832,0.046 1.7818,0.059 0.61342,0.013 1.17468,0.026 1.6838,0.039 0.50905,0.013 0.86796,0.019 1.07673,0.019 0.20869,0 0.37839,-0.026 0.50908,-0.078 0.13062,-0.052 0.19595,-0.1305 0.19599,-0.2349 -4e-5,-0.1561 -0.0917,-0.2342 -0.27486,-0.2342 -0.18248,0 -0.47606,-0.013 -0.88074,-0.039 -0.40475,-0.026 -0.85488,-0.1179 -1.35039,-0.2749 -0.36571,-0.1043 -0.65292,-0.2936 -0.86162,-0.5676 -0.20876,-0.2741 -0.37846,-0.5742 -0.50908,-0.9005 -0.13069,-0.3262 -0.22211,-0.6656 -0.27426,-1.0181 -0.0522,-0.3526 -0.0914,-0.6722 -0.11771,-0.9591 z"
         id="path4023"
         inkscape:connector-curvature="0"
         style="stroke:#000000;stroke-opacity:1" />
      <path
         d="m 115.0091,1030.8944 c -1e-5,1.6181 -0.007,3.0538 -0.0197,4.3069 -0.0131,1.2532 -0.0719,2.2192 -0.17627,2.898 -0.0781,0.4963 -0.16273,0.8945 -0.25394,1.1944 -0.0912,0.3 -0.30653,0.489 -0.64592,0.5671 -0.15695,0.053 -0.33342,0.092 -0.5294,0.1183 -0.19599,0.026 -0.37206,0.039 -0.5282,0.039 -0.18325,0 -0.27486,0.091 -0.27486,0.2737 0,0.1824 0.18283,0.2736 0.54852,0.2736 0.26131,0 0.58118,-0.01 0.95961,-0.019 0.37842,-0.013 0.7439,-0.026 1.09644,-0.039 0.35253,-0.013 0.65926,-0.026 0.92018,-0.04 0.26091,-0.013 0.40451,-0.02 0.43081,-0.02 0.0263,0 0.18303,0.01 0.47024,0.02 0.2872,0.013 0.63297,0.026 1.03729,0.04 0.40431,0.013 0.85464,0.026 1.35099,0.039 0.49633,0.013 0.97912,0.019 1.44838,0.019 0.36567,0 0.54851,-0.091 0.54852,-0.2736 -1e-5,-0.1825 -0.0912,-0.2737 -0.27366,-0.2737 -0.15696,0 -0.39199,-0.013 -0.70507,-0.039 -0.31311,-0.026 -0.58717,-0.066 -0.82219,-0.1183 -0.52184,-0.078 -0.8676,-0.2671 -1.03728,-0.5671 -0.16971,-0.2999 -0.28085,-0.6981 -0.33342,-1.1944 -0.0781,-0.6788 -0.12369,-1.6448 -0.13683,-2.898 -0.0131,-1.2531 -0.0197,-2.6888 -0.0197,-4.3069 l 0,-13.5493 c -1e-5,-0.3919 0.0912,-0.6006 0.27366,-0.6261 0.18323,-0.053 0.47721,-0.105 0.88194,-0.1572 0.40471,-0.052 0.75047,-0.078 1.03729,-0.078 0.18243,10e-5 0.44334,10e-5 0.78275,0 0.36566,10e-5 0.75743,0.046 1.17531,0.1369 0.41785,0.091 0.86161,0.2478 1.33127,0.4696 0.46963,0.2219 0.92633,0.5547 1.3701,0.9985 0.47003,0.4445 0.83571,0.9082 1.09704,1.391 0.2613,0.4828 0.45709,0.9526 0.58736,1.4095 0.13024,0.4569 0.20852,0.8812 0.23483,1.2727 0.0263,0.3916 0.0394,0.7181 0.0394,0.9794 -1e-5,0.7568 -0.15676,1.4615 -0.47024,2.114 -0.31352,0.6525 -0.75727,1.2203 -1.33127,1.7035 -0.57403,0.4832 -1.24623,0.8618 -2.01662,1.1359 -0.77041,0.274 -1.62526,0.4111 -2.56454,0.4111 -0.36569,0 -0.60729,0.026 -0.72479,0.078 -0.11752,0.052 -0.17628,0.1437 -0.17627,0.2743 -1e-5,0.078 0.0392,0.1498 0.11772,0.2151 0.0785,0.065 0.15673,0.098 0.23482,0.098 0.10435,0.026 0.2609,0.039 0.46965,0.039 0.23501,0 0.4047,0 0.50908,0 1.33126,0 2.53864,-0.1894 3.62215,-0.5682 1.08348,-0.3788 2.0168,-0.914 2.79996,-1.6055 0.78313,-0.6915 1.39,-1.5269 1.82064,-2.506 0.43058,-0.9791 0.64589,-2.069 0.64591,-3.2696 -2e-5,-0.9138 -0.18923,-1.7167 -0.56764,-2.4086 -0.37845,-0.6919 -0.76325,-1.2207 -1.1544,-1.5864 -0.15697,-0.1299 -0.37905,-0.2994 -0.66623,-0.5085 -0.28723,-0.2091 -0.68537,-0.418 -1.19444,-0.6268 -0.5091,-0.2087 -1.14864,-0.385 -1.91863,-0.5288 -0.77001,-0.1438 -1.70313,-0.2157 -2.79936,-0.2157 -0.39198,0 -0.82937,0.01 -1.31215,0.02 -0.4828,0.013 -0.95922,0.02 -1.42926,0.02 -0.47005,10e-5 -0.90086,0.01 -1.29243,0.02 -0.39158,0.013 -0.67858,0.02 -0.86102,0.02 -0.0789,0 -0.25534,-0.01 -0.5294,-0.02 -0.27407,-0.013 -0.60668,-0.02 -0.99785,-0.02 -0.36569,10e-5 -0.7704,-0.01 -1.21416,-0.02 -0.44376,-0.013 -0.86162,-0.02 -1.25359,-0.02 -0.36568,0 -0.54852,0.092 -0.54852,0.2748 0,0.1825 0.0916,0.2737 0.27486,0.2737 0.15615,0 0.35831,0.01 0.60648,0.02 0.24817,0.013 0.43758,0.033 0.56824,0.059 0.57441,0.078 0.93989,0.2607 1.09644,0.5479 0.15655,0.2872 0.26111,0.718 0.3137,1.2924 0.0255,0.2614 0.0448,0.542 0.058,0.8419 0.0131,0.3 0.0197,0.7113 0.0197,1.2339 -1e-5,0.4956 -1e-5,1.1481 0,1.9575 -1e-5,0.8094 -1e-5,1.8535 0,3.1322 z"
         id="path4025"
         inkscape:connector-curvature="0"
         style="stroke:#000000;stroke-opacity:1" />
      <path
         d="m 141.08592,1025.0197 c -10e-6,-1.2787 -10e-6,-2.3228 0,-3.1322 -10e-6,-0.8094 -10e-6,-1.4619 0,-1.9575 -10e-6,-0.5226 0.007,-0.9339 0.0197,-1.2339 0.0131,-0.2999 0.0197,-0.5805 0.0197,-0.8419 0.0526,-0.6006 0.15056,-1.038 0.29397,-1.3121 0.1434,-0.2741 0.47641,-0.4633 0.99905,-0.5677 0.20872,-0.026 0.41746,-0.046 0.6262,-0.059 0.20872,-0.013 0.37842,-0.02 0.50908,-0.02 0.18243,0 0.27366,-0.078 0.27367,-0.2343 -1e-5,-0.1832 -0.18285,-0.2748 -0.54852,-0.2748 -0.26053,0 -0.59972,0.01 -1.01757,0.02 -0.41788,0.013 -0.8224,0.02 -1.21356,0.02 -0.39198,10e-5 -0.74452,0.01 -1.05761,0.02 -0.3131,0.013 -0.4828,0.02 -0.50908,0.02 -0.0526,0 -0.20934,-0.01 -0.47025,-0.02 -0.26092,-0.013 -0.58696,-0.02 -0.97813,-0.02 -0.36569,10e-5 -0.7704,-0.01 -1.21415,-0.02 -0.44376,-0.013 -0.86163,-0.02 -1.25359,-0.02 -0.36569,0 -0.54853,0.092 -0.54852,0.2748 -1e-5,0.1825 0.0916,0.2737 0.27485,0.2737 0.15615,0 0.35831,0.01 0.60648,0.02 0.24817,0.013 0.43758,0.033 0.56824,0.059 0.57441,0.078 0.93989,0.2607 1.09644,0.5479 0.15655,0.2872 0.26111,0.718 0.3137,1.2924 0.0255,0.2614 0.0448,0.542 0.058,0.8419 0.0131,0.3 0.0197,0.7113 0.0197,1.2339 -1e-5,0.4956 -1e-5,1.1481 0,1.9575 -1e-5,0.8094 -1e-5,1.8535 0,3.1322 l 0,5.8747 c -1e-5,1.6181 -0.007,3.0538 -0.0197,4.3069 -0.0131,1.2532 -0.0719,2.2192 -0.17627,2.898 -0.0781,0.4963 -0.16273,0.8945 -0.25394,1.1944 -0.0912,0.3 -0.30653,0.489 -0.64592,0.5671 -0.15695,0.053 -0.33342,0.092 -0.5294,0.1183 -0.19599,0.026 -0.37206,0.039 -0.5282,0.039 -0.18324,0 -0.27486,0.091 -0.27486,0.2737 0,0.1824 0.18284,0.2736 0.54852,0.2736 0.2876,0 0.6011,-0.01 0.94049,-0.019 0.33939,-0.013 0.69152,-0.032 1.05641,-0.059 0.33938,-0.026 0.63974,-0.04 0.90106,-0.04 0.2613,0 0.431,0 0.50908,0 0.52182,0 1.08309,0.01 1.6838,0.02 0.6007,0.013 1.29262,0.033 2.07578,0.059 1.59256,0.078 3.58946,0.1171 5.9907,0.1171 0.47003,0 0.83551,-0.013 1.09644,-0.039 0.2609,-0.026 0.46326,-0.065 0.60708,-0.1177 0.14378,-0.052 0.24835,-0.1371 0.31369,-0.2546 0.0653,-0.1175 0.12387,-0.2806 0.17567,-0.4893 0.0789,-0.2351 0.14438,-0.5286 0.19659,-0.8808 0.0522,-0.3521 0.10434,-0.6915 0.15655,-1.0181 0.0522,-0.3267 0.0912,-0.627 0.11711,-0.9011 0.0259,-0.2741 0.0388,-0.4501 0.0388,-0.5282 -2e-5,-0.3394 -0.0781,-0.5091 -0.23423,-0.5091 -0.18326,0 -0.30077,0.1434 -0.35253,0.4302 -0.0526,0.3394 -0.1506,0.6724 -0.29398,0.9991 -0.14342,0.3266 -0.31949,0.6202 -0.52821,0.8807 -0.41828,0.4963 -0.98631,0.7901 -1.70411,0.8813 -0.71784,0.091 -1.53364,0.1369 -2.44743,0.1369 -1.35757,0 -2.38869,-0.059 -3.09335,-0.1763 -0.70468,-0.1175 -1.20082,-0.3197 -1.48841,-0.6065 -0.15616,-0.1569 -0.28005,-0.4051 -0.37166,-0.7445 -0.0916,-0.3394 -0.16353,-0.8026 -0.2157,-1.3898 -0.0522,-0.5872 -0.0849,-1.3181 -0.098,-2.1929 -0.0132,-0.8747 -0.0197,-1.9256 -0.0197,-3.1525 z"
         id="path4027"
         inkscape:connector-curvature="0"
         style="stroke:#000000;stroke-opacity:1" />
      <path
         d="m 162.82597,1034.7711 c -1e-5,0.2868 -1e-5,0.7437 0,1.3707 -1e-5,0.6262 -0.0263,1.2787 -0.0789,1.9575 -0.0518,0.4963 -0.14302,0.8945 -0.27366,1.1944 -0.13067,0.3 -0.37884,0.489 -0.74451,0.5671 -0.15616,0.053 -0.32566,0.092 -0.50849,0.1183 -0.18285,0.026 -0.35274,0.039 -0.50968,0.039 -0.18245,0 -0.27367,0.091 -0.27366,0.2737 -1e-5,0.1824 0.18283,0.2736 0.54852,0.2736 0.26051,0 0.57361,-0.01 0.9393,-0.019 0.36567,-0.013 0.72477,-0.026 1.07732,-0.039 0.35252,-0.013 0.65267,-0.026 0.90046,-0.04 0.24775,-0.013 0.39793,-0.02 0.45052,-0.02 0.0518,0 0.2147,0.01 0.48877,0.02 0.27405,0.013 0.62001,0.026 1.03789,0.04 0.41785,0.013 0.87475,0.026 1.3707,0.039 0.49593,0.013 0.97892,0.019 1.44898,0.019 0.36566,0 0.5485,-0.091 0.54852,-0.2736 -2e-5,-0.1825 -0.0916,-0.2737 -0.27486,-0.2737 -0.15616,0 -0.39736,-0.013 -0.72359,-0.039 -0.32626,-0.026 -0.60689,-0.066 -0.8419,-0.1183 -0.52264,-0.078 -0.86223,-0.2671 -1.01877,-0.5671 -0.15656,-0.2999 -0.26073,-0.6981 -0.3125,-1.1944 -0.0526,-0.6788 -0.0855,-1.3315 -0.0986,-1.9581 -0.0132,-0.6266 -0.0197,-1.0833 -0.0197,-1.3701 l 0,-2.8585 c -1e-5,-0.5489 -1e-5,-1.0843 0,-1.6061 -1e-5,-0.5481 0.14379,-1.1225 0.43141,-1.7233 0.10435,-0.235 0.31966,-0.6265 0.64592,-1.1747 0.32623,-0.5481 0.70465,-1.1811 1.13528,-1.8989 0.43059,-0.7178 0.89407,-1.4683 1.39042,-2.2514 0.49632,-0.7832 0.97274,-1.5273 1.42926,-2.2323 0.45648,-0.7051 0.87415,-1.3251 1.25299,-1.8601 0.37881,-0.535 0.65944,-0.92 0.8419,-1.155 0.36566,-0.4438 0.65944,-0.7766 0.88134,-0.9985 0.22186,-0.2218 0.50249,-0.4371 0.8419,-0.6459 0.28679,-0.1569 0.57379,-0.268 0.86102,-0.3334 0.28719,-0.065 0.53515,-0.098 0.74391,-0.098 0.13063,0 0.2352,-0.039 0.3137,-0.1171 0.0785,-0.078 0.11768,-0.1565 0.11771,-0.2354 -3e-5,-0.1307 -0.14383,-0.196 -0.43141,-0.196 -0.15617,0 -0.41052,0.01 -0.76303,0.02 -0.35256,0.013 -0.71166,0.02 -1.07732,0.02 -0.3657,10e-5 -0.69852,0.01 -0.99845,0.02 -0.29998,0.013 -0.47624,0.02 -0.5288,0.02 -0.13068,0 -0.45055,-0.013 -0.95962,-0.04 -0.5091,-0.026 -0.98552,-0.039 -1.42926,-0.039 -0.3649,0 -0.54734,0.065 -0.54732,0.196 -2e-5,0.1832 0.16968,0.3139 0.50908,0.3919 0.36487,0.1044 0.54731,0.3916 0.54733,0.8617 -2e-5,0.2087 -0.0456,0.4567 -0.13683,0.7439 -0.0912,0.2872 -0.24122,0.6136 -0.44993,0.9793 -0.10439,0.1825 -0.30017,0.5151 -0.58736,0.9979 -0.28722,0.4828 -0.62004,1.044 -0.99845,1.6838 -0.37845,0.6397 -0.78316,1.3121 -1.21416,2.0172 -0.43102,0.7051 -0.83574,1.3838 -1.21415,2.0363 -0.37844,0.6525 -0.71783,1.2399 -1.01817,1.7621 -0.30036,0.5222 -0.50272,0.9009 -0.60708,1.1359 l -6.26556,-10.3777 c -0.12986,-0.2087 -0.2406,-0.4174 -0.33222,-0.6262 -0.0916,-0.2087 -0.13743,-0.4306 -0.13742,-0.6656 -1e-5,-0.235 0.14379,-0.4179 0.4314,-0.5486 0.36488,-0.1306 0.54732,-0.2481 0.54733,-0.3525 -1e-5,-0.078 -0.0261,-0.1368 -0.0783,-0.1763 -0.0522,-0.039 -0.18264,-0.059 -0.39137,-0.059 -0.67878,0 -1.31175,0.013 -1.89891,0.039 -0.58716,0.026 -0.94607,0.04 -1.07672,0.04 -0.0526,0 -0.22248,-0.01 -0.50968,-0.02 -0.28721,-0.013 -0.6264,-0.02 -1.01758,-0.02 -0.36568,10e-5 -0.73116,-0.01 -1.09644,-0.02 -0.36528,-0.013 -0.6264,-0.02 -0.78334,-0.02 -0.28681,0 -0.43021,0.079 -0.43022,0.2354 1e-5,0.2088 0.11712,0.3131 0.35134,0.3131 0.13066,0 0.33959,0.039 0.6268,0.1177 0.28721,0.079 0.56147,0.1958 0.82278,0.352 0.3131,0.2095 0.66543,0.5101 1.05701,0.9016 0.39157,0.3916 0.79609,0.9005 1.21355,1.5267 0.18324,0.2876 0.4575,0.7184 0.82278,1.2924 0.36528,0.574 0.7698,1.207 1.21356,1.8989 0.44375,0.6919 0.89408,1.3968 1.35099,2.1146 0.45689,0.7178 0.88113,1.3901 1.27271,2.0166 0.39156,0.6266 0.718,1.1552 0.97933,1.5858 0.2613,0.4307 0.41785,0.6854 0.46964,0.7643 0.26131,0.47 0.45072,0.9333 0.56824,1.3898 0.1175,0.4565 0.17626,1.1289 0.17627,2.0172 z"
         id="path4029"
         inkscape:connector-curvature="0"
         style="stroke:#000000;stroke-opacity:1" />
      <path
         d="m 283.94141,1029.2106 c -1e-5,1.8794 -0.007,3.5567 -0.0197,5.0317 -0.0131,1.4751 -0.0719,2.6301 -0.17627,3.465 -0.0781,0.5744 -0.18902,1.0574 -0.33281,1.449 -0.14381,0.3916 -0.4113,0.6264 -0.80247,0.7045 -0.18324,0.053 -0.37923,0.092 -0.58795,0.1183 -0.20874,0.026 -0.40433,0.039 -0.58677,0.039 -0.20953,0 -0.31429,0.078 -0.31429,0.2342 0,0.2088 0.20913,0.3131 0.62739,0.3131 0.28681,0 0.63914,-0.01 1.05701,-0.019 0.41786,-0.013 0.82257,-0.026 1.21415,-0.039 0.39157,-0.013 0.72439,-0.026 0.99845,-0.04 0.27406,-0.013 0.41109,-0.02 0.4111,-0.02 0.0518,0 0.22784,0.01 0.5282,0.02 0.30034,0.013 0.67897,0.026 1.13588,0.04 0.45689,0.013 0.9594,0.026 1.50753,0.039 0.54811,0.013 1.09624,0.019 1.64437,0.019 0.41825,0 0.62738,-0.1043 0.62739,-0.3131 -10e-6,-0.1561 -0.10478,-0.2342 -0.31429,-0.2342 -0.18246,0 -0.44994,-0.013 -0.80247,-0.039 -0.35254,-0.026 -0.67221,-0.066 -0.95901,-0.1183 -0.60071,-0.078 -0.99229,-0.3129 -1.17472,-0.7045 -0.18245,-0.3916 -0.29996,-0.8746 -0.35253,-1.449 -0.10438,-0.8349 -0.16313,-1.9899 -0.17627,-3.465 -0.0132,-1.475 -0.0197,-3.1523 -0.0197,-5.0317 l 0,-0.9405 c -10e-6,-0.2087 0.0916,-0.313 0.27486,-0.3131 l 4.81598,0.079 c 0.18243,0 0.35213,0.078 0.50909,0.2342 0.18242,0.2614 0.43697,0.6073 0.76363,1.0379 0.32662,0.4307 0.67916,0.9071 1.0576,1.4293 0.37841,0.5222 0.77635,1.0706 1.19384,1.645 0.41744,0.5744 0.83531,1.1356 1.25359,1.6838 1.12251,1.4882 2.07535,2.7087 2.85852,3.6615 0.78312,0.9529 1.59216,1.6512 2.42711,2.0949 0.49631,0.2868 1.04463,0.4824 1.64496,0.5868 0.60028,0.1044 1.44895,0.1565 2.54602,0.1565 l 2.77965,0 c 0.36565,0 0.61362,-0.02 0.74391,-0.059 0.13022,-0.039 0.19535,-0.1239 0.19539,-0.2546 -4e-5,-0.1561 -0.11715,-0.2342 -0.35134,-0.2342 -0.13069,0 -0.32668,-0.01 -0.58796,-0.02 -0.26134,-0.013 -0.57444,-0.046 -0.9393,-0.099 -0.49636,-0.078 -1.14925,-0.2868 -1.95866,-0.6262 -0.80946,-0.3394 -1.74915,-1.0703 -2.81908,-2.1929 -1.14885,-1.2269 -2.38889,-2.6888 -3.72014,-4.3857 -1.33129,-1.697 -2.80635,-3.5768 -4.42521,-5.6394 1.74951,-1.6181 2.97661,-3.1646 3.6813,-4.6397 0.70465,-1.4751 1.05699,-2.9436 1.05701,-4.4055 -2e-5,-0.6788 -0.0978,-1.3054 -0.29338,-1.8798 -0.19561,-0.5744 -0.43063,-1.0835 -0.70507,-1.5273 -0.27448,-0.4437 -0.56826,-0.8287 -0.88134,-1.155 -0.31312,-0.3262 -0.58718,-0.5809 -0.82218,-0.7642 -1.04448,-0.7568 -2.18673,-1.233 -3.42676,-1.4286 -1.24006,-0.1956 -2.48628,-0.2934 -3.73866,-0.2934 -0.31391,0 -0.70568,0.01 -1.17532,0.019 -0.46966,0.013 -0.94607,0.026 -1.42926,0.039 -0.4832,0.013 -0.91401,0.026 -1.29242,0.039 -0.37844,0.013 -0.61984,0.02 -0.72419,0.02 -0.0526,0 -0.22886,-0.01 -0.52881,-0.02 -0.29996,-0.013 -0.66544,-0.026 -1.09644,-0.039 -0.43102,-0.013 -0.89449,-0.026 -1.39042,-0.039 -0.49595,-0.013 -0.96579,-0.019 -1.40954,-0.019 -0.41747,0 -0.6262,0.1044 -0.6262,0.3131 0,0.1562 0.10436,0.2342 0.3131,0.2342 0.18244,0 0.41089,0.01 0.68535,0.02 0.27445,0.013 0.48976,0.046 0.64592,0.099 0.65248,0.1307 1.08329,0.3657 1.29242,0.7051 0.20913,0.3394 0.33959,0.8485 0.39138,1.5272 0.0263,0.3132 0.046,0.6458 0.0591,0.9979 0.0131,0.3521 0.0197,0.8286 0.0197,1.4292 -10e-6,0.5745 -10e-6,1.3445 0,2.31 -10e-6,0.9664 -10e-6,2.2065 0,3.7202 z m 3.13218,-16.2907 c -1e-5,-0.235 0.10436,-0.3915 0.3131,-0.4696 0.20872,-0.053 0.54811,-0.1049 1.01817,-0.1572 0.47003,-0.052 1.00541,-0.078 1.60612,-0.078 2.1144,0 3.77211,0.6919 4.97314,2.0757 1.20099,1.3839 1.80149,3.3027 1.80151,5.7565 -2e-5,1.4883 -0.22847,2.7478 -0.68535,3.7787 -0.45692,1.0309 -1.02476,1.7814 -1.70352,2.2515 -0.44378,0.3131 -0.92677,0.5154 -1.44898,0.607 -0.52225,0.092 -1.01838,0.1375 -1.48842,0.1375 -0.86123,0 -1.68998,-0.059 -2.48626,-0.1763 -0.7963,-0.1175 -1.33785,-0.2679 -1.62465,-0.4511 -0.18325,-0.1044 -0.27487,-0.2609 -0.27486,-0.4697 z"
         id="path4031"
         inkscape:connector-curvature="0"
         style="stroke:#000000;stroke-opacity:1" />
      <path
         d="m 308.64635,1027.9176 c 0,1.4882 0.26112,3.0089 0.78335,4.5621 0.52223,1.5531 1.33146,2.9628 2.42771,4.2292 1.09624,1.2663 2.49283,2.2976 4.18979,3.0939 1.69693,0.7963 3.72012,1.1945 6.06957,1.1945 2.06261,0 3.94897,-0.359 5.65908,-1.0768 1.71007,-0.7178 3.16542,-1.6903 4.36606,-2.9176 1.20058,-1.2273 2.1339,-2.6697 2.79996,-4.3273 0.666,-1.6575 0.99902,-3.4132 0.99905,-5.2671 -3e-5,-1.9319 -0.34599,-3.6679 -1.03789,-5.2079 -0.69195,-1.54 -1.64499,-2.8518 -2.85912,-3.9353 -1.21417,-1.0834 -2.65658,-1.9124 -4.32721,-2.4868 -1.67068,-0.5744 -3.47199,-0.8616 -5.40394,-0.8617 -2.37574,1e-4 -4.42502,0.4243 -6.14785,1.2728 -1.72285,0.8484 -3.13896,1.9188 -4.24835,3.211 -1.10939,1.2923 -1.93177,2.702 -2.46714,4.2292 -0.53538,1.5273 -0.80307,2.9566 -0.80307,4.2878 z m 3.56359,-0.8999 c 0,-1.8012 0.24797,-3.3807 0.74391,-4.7383 0.49593,-1.3575 1.18129,-2.4866 2.05606,-3.3873 0.87475,-0.9006 1.91901,-1.5794 3.13278,-2.0363 1.21374,-0.4569 2.53843,-0.6853 3.97408,-0.6854 1.35754,10e-5 2.65634,0.2612 3.89641,0.7834 1.24002,0.5222 2.33647,1.2922 3.28933,2.31 0.95281,1.0178 1.70987,2.2903 2.27116,3.8175 0.56124,1.5273 0.84187,3.2832 0.8419,5.2677 -3e-5,2.4012 -0.33942,4.3394 -1.01817,5.8145 -0.6788,1.475 -1.50756,2.6173 -2.48627,3.4267 -0.97875,0.8094 -1.99672,1.3512 -3.0539,1.6253 -1.05723,0.274 -1.9774,0.411 -2.76053,0.411 -1.56631,0 -3.00871,-0.2937 -4.32722,-0.8813 -1.31853,-0.5875 -2.46735,-1.4294 -3.44647,-2.5257 -0.97914,-1.0962 -1.74277,-2.4211 -2.29088,-3.9747 -0.54813,-1.5535 -0.82219,-3.2959 -0.82219,-5.2271 z"
         id="path4033"
         inkscape:connector-curvature="0"
         style="stroke:#000000;stroke-opacity:1" />
      <path
         d="m 347.35827,1025.0197 c -1e-5,-1.2787 -1e-5,-2.3228 0,-3.1322 -1e-5,-0.8094 -1e-5,-1.4619 0,-1.9575 -1e-5,-0.5226 0.007,-0.9339 0.0197,-1.2339 0.0131,-0.2999 0.0197,-0.5805 0.0197,-0.8419 0.0526,-0.6006 0.15057,-1.038 0.29398,-1.3121 0.1434,-0.2741 0.47641,-0.4633 0.99905,-0.5677 0.20872,-0.026 0.41745,-0.046 0.6262,-0.059 0.20872,-0.013 0.37841,-0.02 0.50908,-0.02 0.18243,0 0.27365,-0.078 0.27366,-0.2343 -1e-5,-0.1832 -0.18285,-0.2748 -0.54852,-0.2748 -0.26053,0 -0.59972,0.01 -1.01757,0.02 -0.41787,0.013 -0.82239,0.02 -1.21355,0.02 -0.39198,10e-5 -0.74452,0.01 -1.05761,0.02 -0.31311,0.013 -0.4828,0.02 -0.50908,0.02 -0.0526,0 -0.20934,-0.01 -0.47025,-0.02 -0.26092,-0.013 -0.58697,-0.02 -0.97813,-0.02 -0.36569,10e-5 -0.77041,-0.01 -1.21416,-0.02 -0.44376,-0.013 -0.86162,-0.02 -1.25359,-0.02 -0.36568,0 -0.54852,0.092 -0.54852,0.2748 0,0.1825 0.0916,0.2737 0.27486,0.2737 0.15615,0 0.35831,0.01 0.60648,0.02 0.24816,0.013 0.43758,0.033 0.56824,0.059 0.57441,0.078 0.93989,0.2607 1.09644,0.5479 0.15654,0.2872 0.26111,0.718 0.3137,1.2924 0.0255,0.2614 0.0448,0.542 0.058,0.8419 0.0131,0.3 0.0197,0.7113 0.0197,1.2339 0,0.4956 0,1.1481 0,1.9575 0,0.8094 0,1.8535 0,3.1322 l 0,5.8747 c 0,1.6181 -0.007,3.0538 -0.0197,4.3069 -0.0132,1.2532 -0.0719,2.2192 -0.17627,2.898 -0.0781,0.4963 -0.16273,0.8945 -0.25395,1.1944 -0.0912,0.3 -0.30653,0.489 -0.64591,0.5671 -0.15695,0.053 -0.33342,0.092 -0.5294,0.1183 -0.19599,0.026 -0.37206,0.039 -0.52821,0.039 -0.18324,0 -0.27486,0.091 -0.27485,0.2737 -1e-5,0.1824 0.18283,0.2736 0.54852,0.2736 0.2876,0 0.60109,-0.01 0.94049,-0.019 0.33938,-0.013 0.69152,-0.032 1.05641,-0.059 0.33938,-0.026 0.63973,-0.04 0.90105,-0.04 0.26131,0 0.431,0 0.50909,0 0.52182,0 1.08309,0.01 1.6838,0.02 0.60069,0.013 1.29262,0.033 2.07577,0.059 1.59257,0.078 3.58947,0.1171 5.9907,0.1171 0.47003,0 0.83551,-0.013 1.09645,-0.039 0.26089,-0.026 0.46325,-0.065 0.60707,-0.1177 0.14379,-0.052 0.24835,-0.1371 0.3137,-0.2546 0.0653,-0.1175 0.12387,-0.2806 0.17567,-0.4893 0.0788,-0.2351 0.14438,-0.5286 0.19658,-0.8808 0.0522,-0.3521 0.10435,-0.6915 0.15655,-1.0181 0.0522,-0.3267 0.0912,-0.627 0.11712,-0.9011 0.0259,-0.2741 0.0388,-0.4501 0.0388,-0.5282 -2e-5,-0.3394 -0.0781,-0.5091 -0.23423,-0.5091 -0.18326,0 -0.30077,0.1434 -0.35254,0.4302 -0.0526,0.3394 -0.15059,0.6724 -0.29397,0.9991 -0.14343,0.3266 -0.3195,0.6202 -0.52821,0.8807 -0.41828,0.4963 -0.98632,0.7901 -1.70412,0.8813 -0.71783,0.091 -1.53364,0.1369 -2.44743,0.1369 -1.35757,0 -2.38868,-0.059 -3.09334,-0.1763 -0.70468,-0.1175 -1.20082,-0.3197 -1.48841,-0.6065 -0.15616,-0.1569 -0.28005,-0.4051 -0.37166,-0.7445 -0.0916,-0.3394 -0.16353,-0.8026 -0.2157,-1.3898 -0.0522,-0.5872 -0.0849,-1.3181 -0.098,-2.1929 -0.0131,-0.8747 -0.0197,-1.9256 -0.0197,-3.1525 z"
         id="path4035"
         inkscape:connector-curvature="0"
         style="stroke:#000000;stroke-opacity:1" />
      <path
         d="m 365.18217,1030.8944 c -10e-6,1.6181 -0.007,3.0538 -0.0197,4.3069 -0.0131,1.2532 -0.0719,2.2192 -0.17627,2.898 -0.0781,0.4963 -0.16273,0.9011 -0.25394,1.2141 -0.0912,0.3131 -0.30653,0.4956 -0.64592,0.5474 -0.15695,0.026 -0.33342,0.059 -0.5294,0.099 -0.19599,0.039 -0.37205,0.059 -0.5282,0.059 -0.18324,0 -0.27486,0.091 -0.27486,0.2737 0,0.1824 0.18284,0.2736 0.54852,0.2736 0.2876,0 0.60747,-0.01 0.95961,-0.019 0.35213,-0.013 0.6979,-0.032 1.03729,-0.059 0.36568,-0.026 0.69232,-0.04 0.97993,-0.04 0.2868,0 0.4565,0 0.50908,0 0.26051,0 0.61265,0 1.05641,0 0.47004,0 1.07074,0.026 1.80211,0.079 0.70427,0.026 1.55254,0.051 2.54483,0.078 0.99226,0.026 2.14089,0.039 3.44588,0.039 0.33937,0 0.62,-0.01 0.8419,-0.02 0.22186,-0.013 0.39813,-0.046 0.5288,-0.098 0.13064,-0.052 0.24158,-0.137 0.33282,-0.2545 0.0912,-0.1175 0.1631,-0.2807 0.2157,-0.4894 0.0518,-0.1824 0.10375,-0.437 0.15595,-0.7636 0.0522,-0.3267 0.10435,-0.6661 0.15655,-1.0182 0.0522,-0.3521 0.0914,-0.6652 0.11771,-0.9393 0.0263,-0.2741 0.0394,-0.4374 0.0394,-0.49 -2e-5,-0.1306 -0.0132,-0.2481 -0.0394,-0.3525 -0.0263,-0.1044 -0.0916,-0.1565 -0.19598,-0.1565 -0.15617,0 -0.27368,0.1697 -0.35254,0.509 -0.10438,0.6788 -0.28045,1.1813 -0.5282,1.5076 -0.24779,0.3262 -0.59355,0.5937 -1.03729,0.8024 -0.44377,0.1833 -1.01819,0.2878 -1.72324,0.3137 -0.70508,0.026 -1.2795,0.039 -1.72324,0.039 -0.86123,0 -1.55296,-0.033 -2.07517,-0.098 -0.52224,-0.065 -0.93353,-0.1958 -1.23388,-0.3914 -0.30036,-0.1956 -0.50272,-0.4696 -0.60707,-0.8222 -0.10438,-0.3525 -0.16971,-0.8028 -0.19599,-1.351 -10e-6,-0.1569 -10e-6,-0.4831 0,-0.9787 -10e-6,-0.5226 -10e-6,-1.0839 0,-1.6838 -10e-6,-0.6007 -10e-6,-1.1751 0,-1.7232 -10e-6,-0.5744 -10e-6,-1.005 0,-1.2919 l 0,-2.7808 c -10e-6,-0.1569 0.0785,-0.2354 0.23542,-0.2354 0.15694,0 0.47044,0 0.94049,0 0.46924,0 0.97813,0.01 1.52666,0.02 0.54851,0.013 1.08368,0.033 1.60553,0.059 0.52181,0.026 0.90024,0.053 1.13528,0.079 0.67876,0.078 1.12909,0.2086 1.35098,0.3914 0.22187,0.1828 0.3591,0.3918 0.41169,0.6268 0.0781,0.2087 0.12367,0.4043 0.13683,0.5867 0.0131,0.1825 0.0197,0.3522 0.0197,0.5091 -10e-6,0.2088 0.0781,0.3131 0.23423,0.3131 0.13064,0 0.21569,-0.072 0.25514,-0.2151 0.0394,-0.1434 0.0591,-0.2804 0.0591,-0.4111 -10e-6,-0.1306 0.0129,-0.4373 0.0388,-0.9201 0.0259,-0.4828 0.0651,-0.8939 0.11771,-1.2333 0.0518,-0.5481 0.11033,-0.9658 0.17567,-1.253 0.0653,-0.2872 0.098,-0.483 0.098,-0.5874 -2e-5,-0.1832 -0.0653,-0.2748 -0.19599,-0.2748 -0.0518,0 -0.2215,0.1438 -0.50908,0.4314 -0.18246,0.1824 -0.40414,0.2932 -0.66504,0.3322 -0.26093,0.039 -0.60052,0.085 -1.01877,0.1374 -0.20874,0.026 -0.60032,0.046 -1.17471,0.059 -0.57443,0.013 -1.18788,0.019 -1.84036,0.019 -0.6525,0 -1.2528,0 -1.80091,0 -0.52264,0 -0.83614,0 -0.94049,0 -0.13067,0 -0.196,-0.1175 -0.19599,-0.3525 l 0,-9.0452 c -10e-6,-0.235 0.0653,-0.3525 0.19599,-0.3526 0.10435,1e-4 0.39156,1e-4 0.86162,0 0.47003,1e-4 0.98569,0.01 1.54697,0.02 0.56125,0.013 1.08985,0.026 1.58581,0.04 0.49592,0.013 0.82236,0.032 0.97933,0.058 0.47003,0.053 0.84865,0.1116 1.13588,0.1769 0.28719,0.065 0.52201,0.1371 0.70447,0.2151 0.18242,0.078 0.31945,0.1695 0.41109,0.2743 0.0916,0.1048 0.1633,0.2221 0.21511,0.3519 0.0788,0.2096 0.13123,0.4253 0.15714,0.6471 0.0259,0.2219 0.0388,0.3978 0.0388,0.5276 -2e-5,0.2877 0.0912,0.4315 0.27366,0.4314 0.0789,1e-4 0.14439,-0.039 0.19659,-0.1177 0.0522,-0.078 0.0914,-0.1567 0.11771,-0.2348 0.0255,-0.1043 0.0448,-0.2609 0.058,-0.4696 0.0131,-0.2088 0.0328,-0.4306 0.0591,-0.6657 0.0263,-0.235 0.0458,-0.4505 0.0586,-0.6465 0.0127,-0.196 0.0191,-0.333 0.0191,-0.4111 0.0526,-0.47 0.11152,-0.816 0.17686,-1.0379 0.0653,-0.2218 0.098,-0.3981 0.098,-0.5288 -2e-5,-0.2087 -0.0522,-0.313 -0.15655,-0.3131 -0.0789,10e-5 -0.15737,0.02 -0.23543,0.059 -0.0781,0.039 -0.15616,0.072 -0.23422,0.098 -0.13068,0.026 -0.33961,0.059 -0.6268,0.098 -0.28722,0.039 -0.60052,0.072 -0.93989,0.098 -0.13067,0 -0.41788,0 -0.86162,0 -0.44377,0 -0.966,0 -1.56669,0 -0.59992,0 -1.23926,0 -1.91803,0 -0.65329,0 -1.26714,0 -1.84154,0 -0.54813,0 -1.01778,0 -1.40895,0 -0.39198,0 -0.60071,0 -0.6262,0 -0.0526,0 -0.21591,-0.01 -0.48996,-0.02 -0.27407,-0.013 -0.60708,-0.02 -0.99905,-0.02 -0.39118,10e-5 -0.80864,-0.01 -1.25239,-0.02 -0.44376,-0.013 -0.86163,-0.02 -1.25359,-0.02 -0.36569,0 -0.54853,0.092 -0.54852,0.2748 -1e-5,0.1825 0.0916,0.2737 0.27485,0.2737 0.15615,0 0.35831,0.01 0.60648,0.02 0.24817,0.013 0.43758,0.033 0.56824,0.059 0.57441,0.078 0.93989,0.2607 1.09645,0.5479 0.15654,0.2872 0.2611,0.718 0.31369,1.2924 0.0255,0.2614 0.0448,0.542 0.058,0.8419 0.0131,0.3 0.0197,0.7113 0.0197,1.2339 -1e-5,0.4956 -1e-5,1.1481 0,1.9575 -1e-5,0.8094 -1e-5,1.8535 0,3.1322 z"
         id="path4037"
         inkscape:connector-curvature="0"
         style="stroke:#000000;stroke-opacity:1" />
      <path
         d="m 386.75013,1030.8944 c 0,1.6181 -0.007,3.0538 -0.0197,4.3069 -0.0131,1.2532 -0.0719,2.2192 -0.17626,2.898 -0.0781,0.4963 -0.16273,0.8945 -0.25395,1.1944 -0.0912,0.3 -0.30653,0.489 -0.64591,0.5671 -0.15696,0.053 -0.33342,0.092 -0.5294,0.1183 -0.19599,0.026 -0.37206,0.039 -0.52821,0.039 -0.18324,0 -0.27486,0.091 -0.27486,0.2737 0,0.1824 0.18284,0.2736 0.54852,0.2736 0.26131,0 0.58118,-0.01 0.95962,-0.019 0.37842,-0.013 0.7439,-0.026 1.09644,-0.039 0.35253,-0.013 0.65925,-0.026 0.92018,-0.04 0.2609,-0.013 0.40451,-0.02 0.4308,-0.02 0.0263,0 0.18304,0.01 0.47025,0.02 0.2872,0.013 0.63296,0.026 1.03729,0.04 0.40431,0.013 0.85464,0.026 1.35098,0.039 0.49633,0.013 0.97912,0.019 1.44839,0.019 0.36566,0 0.5485,-0.091 0.54852,-0.2736 -2e-5,-0.1825 -0.0912,-0.2737 -0.27367,-0.2737 -0.15696,0 -0.39198,-0.013 -0.70507,-0.039 -0.31311,-0.026 -0.58717,-0.066 -0.82218,-0.1183 -0.52184,-0.078 -0.8676,-0.2671 -1.03729,-0.5671 -0.1697,-0.2999 -0.28084,-0.6981 -0.33341,-1.1944 -0.0781,-0.6788 -0.1237,-1.6448 -0.13683,-2.898 -0.0132,-1.2531 -0.0197,-2.6888 -0.0197,-4.3069 l 0,-13.5493 c -1e-5,-0.3919 0.0912,-0.6006 0.27366,-0.6261 0.18323,-0.053 0.47721,-0.105 0.88193,-0.1572 0.40471,-0.052 0.75047,-0.078 1.03729,-0.078 0.18243,10e-5 0.44335,10e-5 0.78275,0 0.36567,10e-5 0.75744,0.046 1.17532,0.1369 0.41785,0.091 0.8616,0.2478 1.33126,0.4696 0.46964,0.2219 0.92634,0.5547 1.37011,0.9985 0.47003,0.4445 0.83571,0.9082 1.09704,1.391 0.2613,0.4828 0.45708,0.9526 0.58736,1.4095 0.13024,0.4569 0.20851,0.8812 0.23482,1.2727 0.0263,0.3916 0.0394,0.7181 0.0394,0.9794 -2e-5,0.7568 -0.15677,1.4615 -0.47025,2.114 -0.31351,0.6525 -0.75727,1.2203 -1.33126,1.7035 -0.57403,0.4832 -1.24624,0.8618 -2.01662,1.1359 -0.77041,0.274 -1.62526,0.4111 -2.56454,0.4111 -0.3657,0 -0.60729,0.026 -0.72479,0.078 -0.11752,0.052 -0.17628,0.1437 -0.17627,0.2743 -10e-6,0.078 0.0392,0.1498 0.11771,0.2151 0.0785,0.065 0.15674,0.098 0.23483,0.098 0.10435,0.026 0.2609,0.039 0.46964,0.039 0.23501,0 0.40471,0 0.50909,0 1.33125,0 2.53863,-0.1894 3.62214,-0.5682 1.08348,-0.3788 2.0168,-0.914 2.79997,-1.6055 0.78312,-0.6915 1.39,-1.5269 1.82063,-2.506 0.43059,-0.9791 0.6459,-2.069 0.64592,-3.2696 -2e-5,-0.9138 -0.18924,-1.7167 -0.56764,-2.4086 -0.37845,-0.6919 -0.76325,-1.2207 -1.15441,-1.5864 -0.15696,-0.1299 -0.37904,-0.2994 -0.66623,-0.5085 -0.28722,-0.2091 -0.68537,-0.418 -1.19443,-0.6268 -0.50911,-0.2087 -1.14865,-0.385 -1.91863,-0.5288 -0.77001,-0.1438 -1.70314,-0.2157 -2.79937,-0.2157 -0.39198,0 -0.82936,0.01 -1.31214,0.02 -0.48281,0.013 -0.95923,0.02 -1.42926,0.02 -0.47006,10e-5 -0.90087,0.01 -1.29243,0.02 -0.39158,0.013 -0.67859,0.02 -0.86102,0.02 -0.0789,0 -0.25535,-0.01 -0.5294,-0.02 -0.27407,-0.013 -0.60669,-0.02 -0.99786,-0.02 -0.36568,10e-5 -0.7704,-0.01 -1.21415,-0.02 -0.44376,-0.013 -0.86162,-0.02 -1.25359,-0.02 -0.36568,0 -0.54852,0.092 -0.54852,0.2748 0,0.1825 0.0916,0.2737 0.27486,0.2737 0.15615,0 0.3583,0.01 0.60648,0.02 0.24816,0.013 0.43757,0.033 0.56824,0.059 0.5744,0.078 0.93988,0.2607 1.09644,0.5479 0.15654,0.2872 0.26111,0.718 0.31369,1.2924 0.0255,0.2614 0.0448,0.542 0.058,0.8419 0.0131,0.3 0.0197,0.7113 0.0197,1.2339 0,0.4956 0,1.1481 0,1.9575 0,0.8094 0,1.8535 0,3.1322 z"
         id="path4039"
         inkscape:connector-curvature="0"
         style="stroke:#000000;stroke-opacity:1" />
      <path
         d="m 412.82696,1025.0197 c -10e-6,-1.2787 -10e-6,-2.3228 0,-3.1322 -10e-6,-0.8094 -10e-6,-1.4619 0,-1.9575 -10e-6,-0.5226 0.007,-0.9339 0.0197,-1.2339 0.0131,-0.2999 0.0197,-0.5805 0.0197,-0.8419 0.0526,-0.6006 0.15057,-1.038 0.29398,-1.3121 0.14339,-0.2741 0.47641,-0.4633 0.99905,-0.5677 0.20872,-0.026 0.41745,-0.046 0.6262,-0.059 0.20872,-0.013 0.37841,-0.02 0.50908,-0.02 0.18243,0 0.27365,-0.078 0.27366,-0.2343 -10e-6,-0.1832 -0.18285,-0.2748 -0.54852,-0.2748 -0.26053,0 -0.59972,0.01 -1.01757,0.02 -0.41787,0.013 -0.82239,0.02 -1.21356,0.02 -0.39198,10e-5 -0.74451,0.01 -1.0576,0.02 -0.31311,0.013 -0.4828,0.02 -0.50908,0.02 -0.0526,0 -0.20934,-0.01 -0.47025,-0.02 -0.26092,-0.013 -0.58697,-0.02 -0.97813,-0.02 -0.36569,10e-5 -0.77041,-0.01 -1.21416,-0.02 -0.44376,-0.013 -0.86162,-0.02 -1.25359,-0.02 -0.36568,0 -0.54852,0.092 -0.54852,0.2748 0,0.1825 0.0916,0.2737 0.27486,0.2737 0.15615,0 0.35831,0.01 0.60648,0.02 0.24816,0.013 0.43758,0.033 0.56824,0.059 0.5744,0.078 0.93988,0.2607 1.09644,0.5479 0.15654,0.2872 0.26111,0.718 0.3137,1.2924 0.0255,0.2614 0.0448,0.542 0.058,0.8419 0.0131,0.3 0.0197,0.7113 0.0197,1.2339 0,0.4956 0,1.1481 0,1.9575 0,0.8094 0,1.8535 0,3.1322 l 0,5.8747 c 0,1.6181 -0.007,3.0538 -0.0197,4.3069 -0.0132,1.2532 -0.0719,2.2192 -0.17627,2.898 -0.0781,0.4963 -0.16273,0.8945 -0.25395,1.1944 -0.0912,0.3 -0.30653,0.489 -0.64591,0.5671 -0.15696,0.053 -0.33342,0.092 -0.5294,0.1183 -0.19599,0.026 -0.37206,0.039 -0.52821,0.039 -0.18324,0 -0.27486,0.091 -0.27485,0.2737 -10e-6,0.1824 0.18283,0.2736 0.54852,0.2736 0.2876,0 0.60109,-0.01 0.94049,-0.019 0.33938,-0.013 0.69152,-0.032 1.05641,-0.059 0.33938,-0.026 0.63973,-0.04 0.90105,-0.04 0.26131,0 0.431,0 0.50909,0 0.52182,0 1.08309,0.01 1.6838,0.02 0.60069,0.013 1.29262,0.033 2.07577,0.059 1.59257,0.078 3.58947,0.1171 5.9907,0.1171 0.47003,0 0.83551,-0.013 1.09645,-0.039 0.26089,-0.026 0.46325,-0.065 0.60707,-0.1177 0.14379,-0.052 0.24835,-0.1371 0.3137,-0.2546 0.0653,-0.1175 0.12387,-0.2806 0.17567,-0.4893 0.0788,-0.2351 0.14438,-0.5286 0.19658,-0.8808 0.0522,-0.3521 0.10435,-0.6915 0.15655,-1.0181 0.0522,-0.3267 0.0912,-0.627 0.11712,-0.9011 0.0259,-0.2741 0.0388,-0.4501 0.0388,-0.5282 -2e-5,-0.3394 -0.0781,-0.5091 -0.23422,-0.5091 -0.18326,0 -0.30077,0.1434 -0.35254,0.4302 -0.0526,0.3394 -0.15059,0.6724 -0.29398,0.9991 -0.14342,0.3266 -0.31949,0.6202 -0.5282,0.8807 -0.41828,0.4963 -0.98632,0.7901 -1.70412,0.8813 -0.71783,0.091 -1.53364,0.1369 -2.44743,0.1369 -1.35757,0 -2.38868,-0.059 -3.09334,-0.1763 -0.70468,-0.1175 -1.20082,-0.3197 -1.48841,-0.6065 -0.15617,-0.1569 -0.28005,-0.4051 -0.37166,-0.7445 -0.0916,-0.3394 -0.16353,-0.8026 -0.2157,-1.3898 -0.0522,-0.5872 -0.0849,-1.3181 -0.098,-2.1929 -0.0131,-0.8747 -0.0197,-1.9256 -0.0197,-3.1525 z"
         id="path4041"
         inkscape:connector-curvature="0"
         style="stroke:#000000;stroke-opacity:1" />
      <path
         d="m 427.79237,1036.8851 c -0.33939,0.8358 -0.71145,1.5277 -1.11616,2.0758 -0.40472,0.5481 -0.99865,0.8744 -1.7818,0.9787 -0.13065,0.026 -0.30035,0.046 -0.50908,0.059 -0.20873,0.013 -0.37843,0.02 -0.50909,0.02 -0.20873,0 -0.31309,0.091 -0.31309,0.2737 0,0.1824 0.22187,0.2736 0.66563,0.2736 0.33939,0 0.6983,-0.01 1.07672,-0.019 0.37843,-0.013 0.73097,-0.026 1.05761,-0.039 0.32664,-0.013 0.61385,-0.026 0.86162,-0.04 0.24777,-0.013 0.41069,-0.02 0.48877,-0.02 0.10516,0 0.28162,0.01 0.5294,0.02 0.24776,0.013 0.5284,0.026 0.8419,0.04 0.31349,0.013 0.62679,0.026 0.93989,0.039 0.31309,0.013 0.57401,0.019 0.78275,0.019 0.33938,0 0.50908,-0.091 0.50908,-0.2736 0,-0.1825 -0.11752,-0.2737 -0.35253,-0.2737 l -0.3131,0 c -0.28681,0 -0.5543,-0.065 -0.80247,-0.196 -0.24817,-0.1306 -0.37225,-0.3656 -0.37225,-0.705 0,-0.6007 0.16969,-1.3448 0.50909,-2.2324 l 1.95746,-5.325 c 0.0789,-0.1833 0.19638,-0.2749 0.35253,-0.2749 l 7.94937,0 c 0.13064,0 0.235,0.065 0.3131,0.196 l 3.09394,7.6363 c 0.13064,0.2868 0.13721,0.4955 0.0197,0.6262 -0.11753,0.1306 -0.22847,0.2222 -0.33282,0.2748 -0.0781,0.052 -0.13685,0.084 -0.17627,0.097 -0.0394,0.013 -0.0592,0.059 -0.0591,0.1368 -2e-5,0.1044 0.11749,0.1632 0.35253,0.1763 0.23501,0.013 0.52221,0.033 0.86162,0.059 0.60068,0.026 1.19462,0.046 1.7818,0.059 0.58713,0.013 1.12888,0.019 1.62524,0.019 0.52181,0 0.95242,0 1.29183,0 0.36566,0 0.61383,0 0.74451,0 0.20871,0 0.39135,-0.02 0.54792,-0.059 0.15652,-0.039 0.2348,-0.1108 0.23483,-0.2151 -3e-5,-0.1044 -0.0456,-0.1761 -0.13684,-0.2151 -0.0912,-0.039 -0.18904,-0.059 -0.29338,-0.059 -0.18326,0 -0.39219,-0.013 -0.62679,-0.039 -0.23465,-0.026 -0.48262,-0.079 -0.74391,-0.1566 -0.18326,-0.053 -0.37925,-0.131 -0.58796,-0.2354 -0.20875,-0.1044 -0.437,-0.287 -0.68475,-0.5479 -0.24779,-0.2609 -0.50891,-0.6133 -0.78335,-1.057 -0.27448,-0.4438 -0.56825,-1.0445 -0.88133,-1.8021 -0.36491,-0.835 -0.80189,-1.8856 -1.31095,-3.1519 -0.50911,-1.2664 -1.05086,-2.6044 -1.62525,-4.0141 -0.57443,-1.4098 -1.15541,-2.839 -1.74296,-4.2878 -0.58757,-1.4488 -1.12932,-2.7801 -1.62524,-3.9938 -0.49595,-1.2138 -0.92019,-2.2514 -1.27271,-3.1131 -0.35255,-0.8616 -0.581,-1.4099 -0.68535,-1.645 -0.18246,-0.3656 -0.31949,-0.6594 -0.41109,-0.8813 -0.0916,-0.2218 -0.22867,-0.3328 -0.4111,-0.3328 -0.13067,0 -0.24818,0.078 -0.35253,0.2348 -0.10438,0.1566 -0.26093,0.5093 -0.46965,1.0582 z m 4.97373,-6.9706 c -0.13067,0 -0.1701,-0.078 -0.11831,-0.2342 l 3.21105,-9.1241 c 0.18323,-0.4963 0.37922,-0.4963 0.58796,0 l 3.40704,9.1241 c 0.0255,0.1561 -0.014,0.2342 -0.11831,0.2342 z"
         id="path4043"
         inkscape:connector-curvature="0"
         style="stroke:#000000;stroke-opacity:1" />
      <path
         d="m 458.96481,1034.7711 c -10e-6,0.2868 -10e-6,0.7437 0,1.3707 -10e-6,0.6262 -0.0263,1.2787 -0.0789,1.9575 -0.0518,0.4963 -0.14302,0.8945 -0.27366,1.1944 -0.13067,0.3 -0.37884,0.489 -0.74451,0.5671 -0.15616,0.053 -0.32566,0.092 -0.50849,0.1183 -0.18285,0.026 -0.35274,0.039 -0.50968,0.039 -0.18245,0 -0.27367,0.091 -0.27366,0.2737 -1e-5,0.1824 0.18283,0.2736 0.54852,0.2736 0.26051,0 0.57361,-0.01 0.93929,-0.019 0.36568,-0.013 0.72478,-0.026 1.07733,-0.039 0.35252,-0.013 0.65267,-0.026 0.90046,-0.04 0.24775,-0.013 0.39793,-0.02 0.45052,-0.02 0.0518,0 0.2147,0.01 0.48877,0.02 0.27405,0.013 0.62001,0.026 1.03789,0.04 0.41785,0.013 0.87475,0.026 1.3707,0.039 0.49593,0.013 0.97892,0.019 1.44898,0.019 0.36566,0 0.5485,-0.091 0.54852,-0.2736 -2e-5,-0.1825 -0.0916,-0.2737 -0.27486,-0.2737 -0.15616,0 -0.39736,-0.013 -0.72359,-0.039 -0.32626,-0.026 -0.60689,-0.066 -0.8419,-0.1183 -0.52264,-0.078 -0.86223,-0.2671 -1.01877,-0.5671 -0.15656,-0.2999 -0.26073,-0.6981 -0.3125,-1.1944 -0.0526,-0.6788 -0.0855,-1.3315 -0.0986,-1.9581 -0.0132,-0.6266 -0.0197,-1.0833 -0.0197,-1.3701 l 0,-2.8585 c -10e-6,-0.5489 -10e-6,-1.0843 0,-1.6061 -10e-6,-0.5481 0.14379,-1.1225 0.43141,-1.7233 0.10435,-0.235 0.31966,-0.6265 0.64592,-1.1747 0.32622,-0.5481 0.70465,-1.1811 1.13528,-1.8989 0.43059,-0.7178 0.89407,-1.4683 1.39042,-2.2514 0.49632,-0.7832 0.97274,-1.5273 1.42926,-2.2323 0.45648,-0.7051 0.87415,-1.3251 1.25299,-1.8601 0.37881,-0.535 0.65944,-0.92 0.8419,-1.155 0.36566,-0.4438 0.65944,-0.7766 0.88134,-0.9985 0.22186,-0.2218 0.50249,-0.4371 0.8419,-0.6459 0.28679,-0.1569 0.57379,-0.268 0.86102,-0.3334 0.28719,-0.065 0.53515,-0.098 0.74391,-0.098 0.13063,0 0.2352,-0.039 0.3137,-0.1171 0.0784,-0.078 0.11768,-0.1565 0.11771,-0.2354 -3e-5,-0.1307 -0.14383,-0.196 -0.43141,-0.196 -0.15617,0 -0.41052,0.01 -0.76303,0.02 -0.35256,0.013 -0.71166,0.02 -1.07732,0.02 -0.3657,10e-5 -0.69852,0.01 -0.99845,0.02 -0.29998,0.013 -0.47624,0.02 -0.5288,0.02 -0.13068,0 -0.45055,-0.013 -0.95962,-0.04 -0.5091,-0.026 -0.98552,-0.039 -1.42926,-0.039 -0.3649,0 -0.54734,0.065 -0.54732,0.196 -2e-5,0.1832 0.16968,0.3139 0.50908,0.3919 0.36487,0.1044 0.54731,0.3916 0.54733,0.8617 -2e-5,0.2087 -0.0456,0.4567 -0.13683,0.7439 -0.0912,0.2872 -0.24122,0.6136 -0.44993,0.9793 -0.10439,0.1825 -0.30017,0.5151 -0.58736,0.9979 -0.28723,0.4828 -0.62004,1.044 -0.99845,1.6838 -0.37845,0.6397 -0.78316,1.3121 -1.21416,2.0172 -0.43102,0.7051 -0.83574,1.3838 -1.21415,2.0363 -0.37844,0.6525 -0.71783,1.2399 -1.01817,1.7621 -0.30036,0.5222 -0.50272,0.9009 -0.60708,1.1359 l -6.26556,-10.3777 c -0.12986,-0.2087 -0.2406,-0.4174 -0.33222,-0.6262 -0.0916,-0.2087 -0.13743,-0.4306 -0.13742,-0.6656 -10e-6,-0.235 0.14379,-0.4179 0.4314,-0.5486 0.36488,-0.1306 0.54732,-0.2481 0.54733,-0.3525 -1e-5,-0.078 -0.0261,-0.1368 -0.0783,-0.1763 -0.0522,-0.039 -0.18264,-0.059 -0.39137,-0.059 -0.67878,0 -1.31175,0.013 -1.89891,0.039 -0.58716,0.026 -0.94607,0.04 -1.07672,0.04 -0.0526,0 -0.22248,-0.01 -0.50968,-0.02 -0.28721,-0.013 -0.6264,-0.02 -1.01758,-0.02 -0.36568,10e-5 -0.73116,-0.01 -1.09644,-0.02 -0.36528,-0.013 -0.6264,-0.02 -0.78334,-0.02 -0.28681,0 -0.43021,0.079 -0.43022,0.2354 1e-5,0.2088 0.11712,0.3131 0.35134,0.3131 0.13066,0 0.33959,0.039 0.6268,0.1177 0.28721,0.079 0.56147,0.1958 0.82278,0.352 0.3131,0.2095 0.66543,0.5101 1.05701,0.9016 0.39157,0.3916 0.79609,0.9005 1.21355,1.5267 0.18324,0.2876 0.4575,0.7184 0.82278,1.2924 0.36528,0.574 0.7698,1.207 1.21356,1.8989 0.44375,0.6919 0.89408,1.3968 1.35099,2.1146 0.45689,0.7178 0.88113,1.3901 1.27271,2.0166 0.39156,0.6266 0.718,1.1552 0.97933,1.5858 0.2613,0.4307 0.41785,0.6854 0.46964,0.7643 0.26131,0.47 0.45072,0.9333 0.56824,1.3898 0.1175,0.4565 0.17626,1.1289 0.17627,2.0172 z"
         id="path4045"
         inkscape:connector-curvature="0"
         style="stroke:#000000;stroke-opacity:1" />
      <path
         d="m 480.74309,1025.0197 c -10e-6,-1.2787 -10e-6,-2.3228 0,-3.1322 -10e-6,-0.8094 -10e-6,-1.4619 0,-1.9575 -10e-6,-0.5226 0.007,-0.9339 0.0197,-1.2339 0.0131,-0.2999 0.0197,-0.5805 0.0197,-0.8419 0.0526,-0.6006 0.15056,-1.0315 0.29398,-1.2924 0.14339,-0.2609 0.45012,-0.4435 0.92017,-0.5479 0.20873,-0.053 0.36527,-0.079 0.46965,-0.079 0.13065,0 0.2613,0 0.39197,0 0.18243,0 0.27365,-0.091 0.27367,-0.2737 -2e-5,-0.1832 -0.18246,-0.2748 -0.54733,-0.2748 -0.26132,0 -0.5812,0.01 -0.95961,0.02 -0.37844,0.013 -0.75049,0.02 -1.11616,0.02 -0.3394,1e-4 -0.64613,0.01 -0.92018,0.02 -0.27407,0.013 -0.42424,0.02 -0.45053,0.02 -0.0526,0 -0.20933,-0.01 -0.47024,-0.02 -0.26092,-0.013 -0.57422,-0.02 -0.9399,-0.02 -0.33939,1e-4 -0.6983,-0.01 -1.07672,-0.02 -0.37843,-0.013 -0.71105,-0.02 -0.99785,-0.02 -0.36569,0 -0.54853,0.092 -0.54852,0.2748 -1e-5,0.1825 0.0912,0.2737 0.27366,0.2737 0.13065,0 0.2874,0.01 0.47024,0.02 0.18284,0.013 0.37863,0.046 0.58736,0.099 0.36568,0.078 0.62679,0.2542 0.78335,0.5282 0.15654,0.2741 0.26111,0.6983 0.31369,1.2727 0.0255,0.2614 0.0448,0.542 0.058,0.8419 0.0131,0.3 0.0197,0.7113 0.0197,1.2339 -10e-6,0.4956 -10e-6,1.1481 0,1.9575 -10e-6,0.8094 -10e-6,1.8535 0,3.1322 l 0,5.8747 c -10e-6,1.6181 -0.0129,3.0538 -0.0388,4.3069 -0.0259,1.2532 -0.0783,2.2192 -0.15714,2.898 -0.0518,0.4963 -0.12987,0.8945 -0.23423,1.1944 -0.10437,0.3 -0.32625,0.489 -0.66563,0.5671 -0.15696,0.053 -0.33342,0.092 -0.5294,0.1183 -0.19599,0.026 -0.37206,0.039 -0.52821,0.039 -0.18324,0 -0.27486,0.091 -0.27486,0.2737 0,0.1824 0.18284,0.2736 0.54852,0.2736 0.26131,0 0.57461,-0.01 0.9399,-0.019 0.36527,-0.013 0.72418,-0.026 1.07672,-0.039 0.35253,-0.013 0.65926,-0.026 0.92018,-0.04 0.26091,-0.013 0.41765,-0.02 0.47024,-0.02 0.0263,0 0.17646,0.01 0.45053,0.02 0.27405,0.013 0.61982,0.026 1.03729,0.04 0.41746,0.013 0.87436,0.026 1.3707,0.039 0.49633,0.013 0.97912,0.019 1.44838,0.019 0.36567,0 0.54851,-0.091 0.54852,-0.2736 -1e-5,-0.1825 -0.0912,-0.2737 -0.27366,-0.2737 -0.15696,0 -0.39198,-0.013 -0.70507,-0.039 -0.31311,-0.026 -0.60031,-0.066 -0.86162,-0.1183 -0.52184,-0.078 -0.84808,-0.2671 -0.97873,-0.5671 -0.13067,-0.2999 -0.22189,-0.6981 -0.27366,-1.1944 -0.0789,-0.6788 -0.12489,-1.6448 -0.13803,-2.898 -0.0131,-1.2531 -0.0197,-2.6888 -0.0197,-4.3069 z"
         id="path4047"
         inkscape:connector-curvature="0"
         style="stroke:#000000;stroke-opacity:1" />
      <path
         d="m 493.88846,1020.3208 c 0.26051,0.2876 0.68454,0.7447 1.27211,1.3713 0.58755,0.6266 1.28604,1.3639 2.09549,2.212 0.80942,0.8481 1.69056,1.7748 2.64341,2.7802 0.95283,1.0055 1.92519,2.03 2.91708,3.0737 0.91379,0.9401 1.87977,1.9258 2.89796,2.9571 1.01814,1.0313 1.95784,1.9841 2.81908,2.8585 0.8612,0.8744 1.59853,1.6053 2.21201,2.1929 0.61342,0.5875 0.95958,0.9204 1.03848,0.9984 0.47002,0.4438 0.85502,0.7961 1.155,1.057 0.29993,0.261 0.5479,0.4633 0.74391,0.6071 0.19596,0.1438 0.34613,0.2418 0.45053,0.294 0.10434,0.052 0.19556,0.078 0.27366,0.078 0.0525,0 0.0984,-0.02 0.13743,-0.059 0.039,-0.039 0.0651,-0.1434 0.0783,-0.3131 0.0131,-0.1697 0.0263,-0.4113 0.0394,-0.7248 0.0131,-0.3135 0.0197,-0.7443 0.0197,-1.2924 l 0.0777,-19.5006 c -2e-5,-0.4963 0.0131,-0.9141 0.0394,-1.2536 0.0263,-0.3393 0.0784,-0.62 0.15655,-0.8419 0.0781,-0.2218 0.19536,-0.3981 0.35194,-0.5288 0.15652,-0.1306 0.37859,-0.2218 0.66623,-0.2736 0.2087,-0.053 0.3784,-0.079 0.50908,-0.079 0.13063,0 0.235,0 0.3131,0 0.13063,0 0.22862,-0.039 0.29398,-0.1171 0.0653,-0.078 0.098,-0.1434 0.098,-0.196 -3e-5,-0.1569 -0.20916,-0.2354 -0.62739,-0.2354 -0.7043,0 -1.31755,0.013 -1.83975,0.039 -0.52226,0.026 -0.88774,0.04 -1.09645,0.04 -0.20876,0 -0.66566,-0.013 -1.3707,-0.04 -0.7051,-0.026 -1.4492,-0.039 -2.23232,-0.039 -0.44378,0 -0.66566,0.079 -0.66564,0.2354 -2e-5,0.053 0.0131,0.1179 0.0394,0.196 0.0263,0.078 0.10474,0.1171 0.23542,0.1171 0.12984,0 0.36446,0.013 0.70388,0.039 0.33936,0.026 0.666,0.065 0.97992,0.1172 0.52181,0.1043 0.861,0.3784 1.01757,0.8221 0.15653,0.4438 0.24795,1.2011 0.27426,2.2718 l 0.35254,16.6815 c -0.26134,-0.2613 -0.67263,-0.6921 -1.23387,-1.2925 -0.56129,-0.6003 -1.21398,-1.292 -1.95807,-2.0751 -0.74412,-0.7832 -1.54041,-1.6251 -2.38887,-2.5257 -0.84849,-0.9007 -1.70334,-1.7948 -2.56454,-2.6823 -1.33128,-1.3575 -2.62351,-2.689 -3.87669,-3.9944 -1.2532,-1.3053 -2.37574,-2.4801 -3.3676,-3.5241 -0.99189,-1.0441 -1.81427,-1.9121 -2.46715,-2.604 -0.65289,-0.6919 -1.04427,-1.1032 -1.17412,-1.2339 -0.18324,-0.1824 -0.39875,-0.3977 -0.64651,-0.6459 -0.24778,-0.2481 -0.47643,-0.3722 -0.68595,-0.3723 -0.12987,10e-5 -0.24061,0.111 -0.33222,0.3329 -0.0916,0.2219 -0.13743,0.6722 -0.13743,1.3509 l 0,19.0704 c 0,0.7576 -0.013,1.391 -0.0388,1.9001 -0.0259,0.5091 -0.0715,0.9202 -0.13683,1.2333 -0.0653,0.3131 -0.16332,0.5479 -0.29398,0.7044 -0.13066,0.1566 -0.30035,0.2612 -0.50908,0.3137 -0.26132,0.078 -0.52901,0.1303 -0.80306,0.1566 -0.27407,0.026 -0.47643,0.039 -0.60708,0.039 -0.18245,0 -0.27367,0.091 -0.27366,0.2737 -10e-6,0.1824 0.18283,0.2736 0.54852,0.2736 0.78314,0 1.49438,-0.02 2.13373,-0.059 0.63934,-0.039 1.03748,-0.059 1.19444,-0.059 0.15694,0 0.55508,0.02 1.19443,0.059 0.63934,0.039 1.45495,0.059 2.44683,0.059 0.41825,0 0.62738,-0.091 0.62739,-0.2736 -1e-5,-0.1825 -0.0916,-0.2737 -0.27485,-0.2737 -0.15616,0 -0.40393,-0.013 -0.74331,-0.039 -0.3394,-0.026 -0.66565,-0.079 -0.97874,-0.1566 -0.23503,-0.053 -0.43101,-0.1505 -0.58795,-0.2939 -0.15696,-0.1434 -0.28762,-0.3653 -0.39197,-0.6657 -0.10438,-0.3003 -0.18265,-0.679 -0.23483,-1.1359 -0.0522,-0.4569 -0.0914,-1.0247 -0.11771,-1.7035 z"
         id="path4049"
         inkscape:connector-curvature="0"
         style="stroke:#000000;stroke-opacity:1" />
      <path
         d="m 541.6241,1037.8256 c -3e-5,0.3131 -0.0654,0.5284 -0.19599,0.6459 -0.13068,0.1176 -0.30037,0.2416 -0.50908,0.3723 -0.44378,0.2605 -1.02457,0.43 -1.74236,0.5085 -0.71784,0.079 -1.3771,0.1177 -1.97778,0.1177 -1.5926,0 -3.11328,-0.2611 -4.56204,-0.7833 -1.44879,-0.5223 -2.86511,-1.4231 -4.24894,-2.7026 -0.31311,-0.2868 -0.67839,-0.7043 -1.09585,-1.2524 -0.41747,-0.5481 -0.81562,-1.2138 -1.19444,-1.9969 -0.37883,-0.7831 -0.6987,-1.6772 -0.95961,-2.6823 -0.26092,-1.005 -0.39138,-2.095 -0.39137,-3.2702 -10e-6,-1.9582 0.31986,-3.6552 0.95961,-5.0908 0.63973,-1.4356 1.45554,-2.5319 2.44743,-3.2887 1.30497,-0.9927 2.5709,-1.6 3.79781,-1.8219 1.22689,-0.2218 2.36257,-0.3328 3.40705,-0.3328 2.24505,0 4.02027,0.2743 5.32566,0.8228 1.30535,0.5485 2.17992,1.1359 2.6237,1.7621 0.28678,0.392 0.48257,0.8032 0.58736,1.2338 0.10474,0.4307 0.16987,0.7503 0.19538,0.9591 -2e-5,0.3394 0.0784,0.5091 0.23543,0.509 0.13063,10e-5 0.22862,-0.046 0.29397,-0.1368 0.0653,-0.091 0.098,-0.2806 0.098,-0.5682 -3e-5,-0.8349 0.0129,-1.5267 0.0388,-2.0752 0.0259,-0.5485 0.0454,-0.9988 0.0585,-1.351 0.0131,-0.3521 0.0328,-0.6196 0.0592,-0.8025 0.0263,-0.1828 0.0394,-0.3395 0.0394,-0.4702 -2e-5,-0.2087 -0.14383,-0.3131 -0.4314,-0.3131 -0.44379,0 -0.92678,-0.039 -1.44898,-0.1177 -0.52226,-0.078 -0.96581,-0.1567 -1.33067,-0.2348 -0.15697,-0.026 -0.41829,-0.072 -0.78394,-0.1375 -0.36571,-0.065 -0.78994,-0.1304 -1.27271,-0.1954 -0.48282,-0.065 -1.00485,-0.117 -1.5661,-0.1565 -0.56128,-0.039 -1.11598,-0.059 -1.66408,-0.059 -1.33128,10e-5 -2.79978,0.1176 -4.40549,0.3526 -1.60574,0.235 -3.19175,0.8226 -4.75803,1.7627 -0.75686,0.47 -1.48782,1.0508 -2.19288,1.7423 -0.70508,0.6916 -1.31853,1.4942 -1.84035,2.408 -0.52184,0.9138 -0.9395,1.9386 -1.253,3.0742 -0.3135,1.1357 -0.47024,2.3692 -0.47024,3.7004 0,1.0445 0.11751,2.0432 0.35253,2.996 0.23502,0.9528 0.54175,1.8338 0.92018,2.6428 0.37842,0.8091 0.8158,1.54 1.31214,2.1929 0.49634,0.6529 1.00542,1.2012 1.52726,1.645 0.96558,0.8094 1.97717,1.4489 3.03478,1.9186 1.0576,0.4696 2.09529,0.8285 3.11307,1.0767 1.01775,0.2482 1.97697,0.4049 2.87764,0.4703 0.90064,0.065 1.67761,0.098 2.33091,0.098 0.49552,0 1.05659,-0.026 1.6832,-0.078 0.62658,-0.052 1.26612,-0.1371 1.91863,-0.2546 0.65247,-0.1175 1.29858,-0.2677 1.93835,-0.4505 0.63971,-0.1828 1.23364,-0.4177 1.78179,-0.7045 0.20871,-0.1051 0.33916,-0.2424 0.39137,-0.4117 0.0522,-0.1692 0.0783,-0.6327 0.0783,-1.3904 l 0,-3.7201 c -3e-5,-0.7043 -3e-5,-1.3177 0,-1.8404 -3e-5,-0.5481 0.0131,-1.0831 0.0394,-1.6049 0.0526,-0.6007 0.1637,-1.0381 0.33342,-1.3121 0.16967,-0.2741 0.48954,-0.4502 0.95961,-0.5282 0.20871,-0.053 0.36526,-0.079 0.46965,-0.079 0.13063,0 0.26089,0 0.39077,0 0.18322,0 0.27483,-0.091 0.27486,-0.2737 -3e-5,-0.1832 -0.18287,-0.2748 -0.54852,-0.2748 -0.26134,0 -0.57464,0.01 -0.93989,0.02 -0.36531,0.013 -0.73079,0.02 -1.09645,0.02 -0.33941,0 -0.63956,0.01 -0.90045,0.02 -0.26094,0.013 -0.40455,0.02 -0.43081,0.02 -0.0526,0 -0.2223,-0.01 -0.50909,-0.02 -0.28683,-0.013 -0.62622,-0.02 -1.01817,-0.02 -0.39119,0 -0.81523,-0.01 -1.27211,-0.02 -0.45692,-0.013 -0.88136,-0.02 -1.27331,-0.02 -0.3657,0 -0.54854,0.092 -0.54852,0.2748 -2e-5,0.1825 0.0916,0.2737 0.27486,0.2737 0.15613,0 0.35829,0.01 0.60648,0.02 0.24815,0.013 0.43756,0.033 0.56824,0.059 0.33937,0.078 0.61343,0.1693 0.82218,0.2736 0.20871,0.1044 0.35869,0.2741 0.44993,0.5091 0.0912,0.235 0.14996,0.5549 0.17627,0.9596 0.0263,0.4047 0.0394,0.9465 0.0394,1.6253 z"
         id="path4051"
         inkscape:connector-curvature="0"
         style="stroke:#000000;stroke-opacity:1" />
    </g>
    <path
       style="fill:#361f00;fill-opacity:1;stroke:#361f00;stroke-opacity:1;stroke-width:2;stroke-miterlimit:4;stroke-dasharray:none"
       d="m 247.27559,1041.19 c -4.05069,-0.4693 -6.38917,-1.4852 -12.84846,-5.5819 -2.6586,-1.6861 -2.90107,-1.9161 -3.39274,-3.2182 -0.85613,-2.2672 -2.02173,-8.6756 -2.05823,-11.3161 -0.0367,-2.6545 0.55576,-4.6952 2.47174,-8.5137 1.25786,-2.5069 2.77369,-3.8893 7.14642,-6.5174 5.42193,-3.2586 5.87079,-3.3617 10.36266,-2.3823 7.62996,1.6637 14.16768,5.1109 15.79923,8.3306 0.66721,1.3167 1.82943,5.9797 2.41048,9.6713 0.2534,1.6099 0.21112,2.3227 -0.28274,4.7678 -0.81215,4.0208 -1.54213,6.3474 -2.37378,7.5658 -0.77742,1.1389 -2.25801,2.204 -7.07527,5.0894 -4.03186,2.4151 -5.26849,2.6713 -10.15931,2.1047 z"
       id="path4014"
       inkscape:connector-curvature="0" />
    <path
       style="fill:#361f00;fill-opacity:1;stroke:#361f00;stroke-opacity:1;stroke-width:2;stroke-miterlimit:4;stroke-dasharray:none"
       d="m 198.60205,1040.8748 c -5.26971,-3.9354 -9.78403,-7.9213 -10.10042,-8.9182 -0.3386,-1.0668 5.76347,-14.1043 7.58319,-16.2021 0.79821,-0.9201 1.86461,-1.6052 4.44791,-2.8574 3.58151,-1.736 8.14482,-3.6448 8.7138,-3.6448 0.81645,0 4.8783,3.2377 11.61529,9.2585 3.79058,3.3876 3.89635,4.138 1.54743,10.9782 -0.86572,2.521 -1.86446,5.1516 -2.21941,5.8457 -1.32199,2.5852 -3.12366,3.7354 -12.07326,7.7077 -2.26489,1.0053 -4.13326,1.8242 -4.15193,1.8198 -0.0187,0 -2.43184,-1.7987 -5.3626,-3.9874 z"
       id="path4016"
       inkscape:connector-curvature="0" />
    <path
       style="fill:#000000;fill-opacity:1;stroke:none"
       d=""
       id="path3872"
       inkscape:connector-curvature="0"
       transform="translate(0,952.36218)" />
    <path
       style="fill:#000000;fill-opacity:1;stroke:none"
       d=""
       id="path3874"
       inkscape:connector-curvature="0"
       transform="translate(0,952.36218)" />
    <path
       style="fill:#000000;fill-opacity:1;stroke:none"
       d=""
       id="path3878"
       inkscape:connector-curvature="0"
       transform="translate(0,952.36218)" />
    <path
       style="fill:#000000;fill-opacity:1;stroke:none"
       d=""
       id="path3882"
       inkscape:connector-curvature="0"
       transform="translate(0,952.36218)" />
    <path
       style="fill:#000000;fill-opacity:1;stroke:none"
       d=""
       id="path3884"
       inkscape:connector-curvature="0"
       transform="translate(0,952.36218)" />
    <path
       style="fill:#000000;fill-opacity:1;stroke:none"
       d=""
       id="path3886"
       inkscape:connector-curvature="0"
       transform="translate(0,952.36218)" />
    <path
       style="fill:#000000;fill-opacity:1;stroke:none"
       d=""
       id="path3888"
       inkscape:connector-curvature="0"
       transform="translate(0,952.36218)" />
    <path
       style="fill:#ffffff;fill-opacity:1;stroke:none;stroke-opacity:1;stroke-width:0;stroke-miterlimit:4;stroke-dasharray:none;opacity:0.25"
       d="m 203.86973,1044.8622 c -0.11772,-0.01 -3.74507,-2.6914 -8.06078,-5.9692 -4.48861,-3.4091 -7.7316,-6.5231 -7.57771,-7.2762 0.14796,-0.724 1.91182,-4.7473 3.91969,-8.9406 3.65067,-7.6241 3.65067,-7.6241 9.9592,-10.4966 3.4697,-1.5797 6.63086,-2.8723 7.0248,-2.8723 0.39394,0 2.02247,1.083 3.61895,2.4067 1.59649,1.3237 4.96193,4.2326 7.47877,6.4644 4.57606,4.0577 4.57606,4.0577 1.8463,11.8858 -2.72977,7.8281 -2.72977,7.8281 -10.36248,11.3178 -4.19798,1.9193 -7.72901,3.4855 -7.84674,3.4802 z m 1.49875,-2.3732 c 0.98383,-0.3084 3.84026,-1.4997 6.34763,-2.6472 4.46064,-2.0414 4.50248,-2.0978 1.94181,-2.612 -1.43939,-0.289 -6.72638,-1.1601 -11.74889,-1.9357 -5.0225,-0.7756 -9.26267,-1.2809 -9.42258,-1.1229 -0.15992,0.1579 2.27064,2.2203 5.40125,4.5829 4.00633,3.0237 6.22174,4.1297 7.48078,3.7349 z m 9.13417,-6.8416 c 1.39626,0.058 2.53805,-0.2026 2.53731,-0.5788 -7.3e-4,-0.3761 -1.80736,-5.955 -4.01472,-12.3974 -4.01338,-11.7136 -4.01338,-11.7136 -13.49662,-1.4049 -5.21578,5.6698 -8.99045,10.471 -8.38816,10.6693 0.60231,0.1984 5.534,1.0909 10.95932,1.9835 5.42532,0.8927 11.00661,1.6704 12.40287,1.7283 z m 4.97792,-2.9549 c 0.57999,-1.0755 1.58009,-3.6982 2.22243,-5.8284 1.05118,-3.486 0.99191,-4.0659 -0.59295,-5.801 -0.96848,-1.0603 -3.71117,-3.5429 -6.09486,-5.5168 -4.33396,-3.5887 -4.33396,-3.5887 -0.46157,7.7564 3.424,10.0315 3.99451,11.1188 4.92695,9.3898 z m -27.53343,-5.4997 c 0.47986,-0.2929 3.92251,-3.8748 7.65032,-7.9596 6.77783,-7.427 6.77783,-7.427 1.96354,-5.0171 -4.10688,2.0558 -5.23101,3.2254 -7.65032,7.9597 -1.55981,3.0523 -2.44341,5.31 -1.96354,5.017 z m 62.48157,13.5777 c -1.09021,0.5982 -3.93481,0.8051 -6.94633,0.5053 -3.68441,-0.3667 -6.48076,-1.3936 -10.07436,-3.6994 -2.73588,-1.7554 -5.37632,-3.4542 -5.86763,-3.7751 -0.4913,-0.3209 -1.41893,-3.6037 -2.06139,-7.2953 -1.09376,-6.2846 -1.03869,-7.031 0.86521,-11.7272 1.79757,-4.434 2.72008,-5.4268 7.95664,-8.5628 5.92333,-3.5471 5.92333,-3.5471 12.25105,-2.0469 3.48024,0.8251 8.10339,2.707 10.27366,4.182 3.54838,2.4117 4.06824,3.2511 5.15964,8.3314 0.66753,3.1073 1.21369,6.1951 1.21369,6.862 0,0.6668 -0.53289,3.4067 -1.18422,6.0887 -1.04953,4.3217 -1.67078,5.1747 -5.46195,7.5004 -2.35275,1.4432 -5.10855,3.0799 -6.12401,3.6369 z m -2.98602,-0.6043 c 0.89634,0.08 3.88463,-1.333 6.64064,-3.1406 4.44538,-2.9156 4.88756,-3.4817 3.91789,-5.0155 -0.60117,-0.9509 -1.51238,-1.724 -2.02491,-1.7181 -0.51253,0.01 -3.17059,0.5994 -5.9068,1.3188 -2.77018,0.7284 -6.14537,2.4156 -7.61596,3.8074 -1.45256,1.3747 -2.64101,2.8071 -2.64101,3.183 0,0.3759 1.3501,0.849 3.00022,1.0512 1.65012,0.2024 3.73359,0.4336 4.62993,0.5138 z m -6.89922,-4.874 c 3.0388,-3.2436 3.0388,-3.2436 -1.75395,-8.6869 -4.50261,-5.1136 -5.0396,-5.4432 -8.87067,-5.4432 -3.43827,0 -4.00793,0.2502 -3.63174,1.5958 0.2454,0.8777 0.70771,3.4425 1.02734,5.6995 0.52798,3.7281 1.02073,4.3769 5.38568,7.0911 4.80454,2.9874 4.80454,2.9874 7.84334,-0.2563 z m 20.35225,-6.9949 c 1.14517,-3.6067 1.17017,-5.1183 0.16225,-9.81 -0.96858,-4.5086 -1.42674,-5.3536 -2.44859,-4.5158 -0.85464,0.7007 -1.25708,3.2035 -1.25708,7.8181 0,3.7332 0.49268,7.684 1.09483,8.7796 1.03061,1.8749 1.17421,1.7417 2.44859,-2.2719 z m -15.68376,2.8781 c 0.33056,-0.01 2.6781,-0.5481 5.21675,-1.1967 4.61573,-1.1792 4.61573,-1.1792 4.87735,-7.9616 0.26161,-6.7825 0.26161,-6.7825 -5.45212,-8.4318 -5.71372,-1.6494 -5.71372,-1.6494 -10.14305,2.6602 -4.42934,4.3096 -4.42934,4.3096 0.23536,9.6286 2.56558,2.9255 4.93515,5.3111 5.26571,5.3013 z m -14.92084,-11.5033 c 3.64418,-0.4588 5.2334,-1.3126 8.82904,-4.7439 3.3211,-3.1693 4.24891,-4.6353 3.8243,-6.0426 -0.30835,-1.0219 -1.08454,-2.4049 -1.72487,-3.0734 -0.96324,-1.0057 -2.06729,-0.7119 -6.39492,1.7007 -3.61696,2.0164 -5.61409,3.8226 -6.47349,5.8542 -0.68355,1.6162 -1.52662,3.8217 -1.8735,4.9013 -0.60115,1.8711 -0.42262,1.9367 3.81344,1.4037 z m 26.12744,-6.1039 c 0.75576,-0.098 1.4946,-0.7963 1.64186,-1.5516 0.14726,-0.7554 -1.03353,-2.1328 -2.62399,-3.0608 -1.59045,-0.928 -5.01017,-2.2394 -7.59939,-2.9142 -2.5892,-0.6746 -4.81454,-1.1211 -4.94519,-0.9921 -0.13066,0.1292 0.48609,1.4165 1.37054,2.861 1.06192,1.7343 3.16606,3.1714 6.19508,4.2311 2.52284,0.8827 5.20532,1.5247 5.96109,1.4266 z m -33.94748,-9.8185 c -8.3245,-0.064 -11.39864,-0.4317 -13.35149,-1.5958 -2.01279,-1.2001 -2.52755,-2.17206 -2.49125,-4.70423 0.0252,-1.75542 0.35893,-5.9748 0.7417,-9.3764 0.47621,-4.23207 0.38838,-6.05972 -0.27819,-5.78852 -0.53578,0.21795 -6.5033,2.53191 -13.26117,5.14215 -6.75786,2.61034 -12.48394,4.55143 -12.72462,4.3137 -0.24067,-0.23774 -0.0577,-2.23071 0.4067,-4.42887 0.46436,-2.19816 1.59482,-9.02105 2.51215,-15.16202 0.91733,-6.14105 1.95379,-11.62244 2.30321,-12.18099 0.40376,-0.64536 4.34816,1.66305 10.82125,6.33293 6.46961,4.66742 10.97422,7.30393 12.34656,7.22641 1.18836,-0.0675 7.6664,-0.0465 14.39562,0.0447 12.23496,0.16707 12.23496,0.16707 11.64376,13.6177 -0.32516,7.39786 -0.96438,14.16874 -1.42047,15.04644 -0.72238,1.3901 -2.22343,1.5851 -11.64376,1.5125 z m 3.87892,-0.9772 c 3.00406,0.082 5.28885,-0.01 5.0773,-0.199 -0.21156,-0.1913 -4.74651,-0.5444 -10.07768,-0.7847 -5.42478,-0.2446 -7.66054,-0.1568 -5.0773,0.1991 2.53865,0.3498 7.07361,0.7029 10.07768,0.7846 z m 4.92344,-1.7993 c 1.55426,0.093 2.09788,-0.3923 2.15971,-1.9277 0.0454,-1.12847 0.35701,-6.82105 0.69236,-12.65024 0.60973,-10.59856 0.60973,-10.59856 -6.77544,-11.16539 -4.06184,-0.31179 -9.71147,-0.5694 -12.55475,-0.57241 -5.16958,-0.009 -5.16958,-0.009 -5.79512,10.92839 -0.34404,6.01358 -0.85053,11.51302 -1.12552,12.22092 -0.4007,1.03145 1.30009,1.40469 8.56456,1.87934 4.9855,0.32569 9.89537,0.72059 10.91083,0.87749 1.01546,0.157 2.78098,0.3413 3.92337,0.4096 z m -42.92048,-13.05459 c 3.17012,-1.18239 8.87947,-3.37416 12.68745,-4.87069 5.82535,-2.28916 6.92359,-3.05526 6.92359,-4.8291 0,-1.87843 -0.95305,-2.38126 -8.74282,-4.61215 -4.80855,-1.37708 -8.84692,-2.40096 -8.97415,-2.2753 -0.12722,0.12575 -1.24922,2.87351 -2.49332,6.10613 -1.2441,3.23272 -2.91509,7.39713 -3.7133,9.25432 -1.45129,3.37661 -1.45129,3.37661 4.31255,1.22679 z m -2.09727,-10.49534 c 2.47762,-6.14944 2.63664,-7.14853 1.65373,-10.38926 -1.0875,-3.58554 -1.0875,-3.58554 -2.14564,2.70015 -0.58199,3.45713 -1.32617,8.13231 -1.65373,10.38928 -0.54863,3.78013 -0.37949,3.56729 2.14564,-2.70017 z m 16.12328,-4.66933 c 0.55389,0.0465 0.55389,-0.23773 0,-0.77257 -0.48234,-0.4658 -3.78316,-2.93315 -7.33514,-5.48293 -3.55199,-2.54979 -6.58334,-4.26508 -6.73634,-3.81168 -0.153,0.45349 0.27952,2.17453 0.96116,3.82471 1.06248,2.57223 2.02376,3.22634 6.73634,4.58426 3.02334,0.87123 5.89164,1.61746 6.37398,1.65821 z m 57.48318,26.44758 c -0.61882,-0.0392 -4.65616,-1.27865 -8.97187,-2.75348 -7.32317,-2.50255 -8.0478,-2.98513 -10.86017,-7.23234 -3.01343,-4.55096 -3.01343,-4.55096 4.45112,-14.34486 4.10549,-5.38664 7.74632,-9.79388 8.09073,-9.79388 0.34441,0 4.57264,1.40005 9.39607,3.11124 4.88084,1.73162 9.38395,3.92959 10.15461,4.9565 0.76159,1.01486 2.11907,2.94811 3.01661,4.29608 1.63188,2.45094 1.63188,2.45094 -6.26004,12.14187 -4.34056,5.33001 -8.39823,9.65845 -9.01706,9.61887 z m -0.48511,-1.84641 c 0.352,0.0519 1.28669,-0.81743 2.07708,-1.93214 0.79038,-1.11472 1.43706,-2.31306 1.43706,-2.66314 0,-0.34998 -2.59635,-0.90734 -5.76966,-1.23846 -3.73945,-0.39021 -6.74416,-0.2143 -8.5391,0.49991 -2.76944,1.10195 -2.76944,1.10195 3.69258,3.17061 3.55411,1.13778 6.75003,2.11124 7.10204,2.16322 z m -15.04842,-5.37687 c 0.43852,0 2.302,-0.62101 4.14107,-1.38009 3.34374,-1.38007 3.34374,-1.38007 3.34374,-11.8548 0,-5.76107 -0.16593,-10.47471 -0.36875,-10.47471 -0.20282,0 -3.1596,3.70271 -6.57065,8.22814 -6.20189,8.22814 -6.20189,8.22814 -3.7723,11.8548 1.33627,1.9947 2.78838,3.62666 3.22689,3.62666 z m 18.67577,-1.01915 c 0.31613,0.0593 2.28936,-1.73016 4.38495,-3.97592 2.09558,-2.24575 3.81015,-4.29344 3.81015,-4.55042 0,-0.25688 -4.0503,-3.78177 -9.00067,-7.83301 -9.00067,-7.36594 -9.00067,-7.36594 -9.26182,3.30448 -0.14363,5.86867 -0.0804,10.84897 0.14055,11.06718 0.22093,0.21832 2.41553,0.73062 4.87688,1.13862 2.46134,0.40798 4.73383,0.79007 5.04996,0.84907 z m 10.06958,-9.92375 c 0.43229,0 1.04729,-0.41756 1.36665,-0.92805 0.31936,-0.51048 -0.65546,-2.45968 -2.16627,-4.33155 -1.9945,-2.47119 -4.33145,-3.96416 -8.53163,-5.45048 -3.18159,-1.12584 -5.93429,-1.89923 -6.1171,-1.71867 -0.18281,0.18065 3.04143,3.05096 7.16499,6.37861 4.12355,3.32756 7.85107,6.05014 8.28336,6.05014 z"
       id="path3037-1"
       inkscape:connector-curvature="0"
       sodipodi:nodetypes="cssssssssccccccssccsssscccsccsccssscccssssssssssccssccssscscssssscsscscsccssssccsccccccsssccscscscsccscscsccsscccccccscsscccsssscsscscssssssccscscccsssscccscsssssssscssssscsssscscssssccs" />
    <text
       xml:space="preserve"
       style="font-size:40px;font-style:normal;font-variant:normal;font-weight:normal;font-stretch:normal;line-height:125%;letter-spacing:0px;word-spacing:0px;fill:#000000;fill-opacity:1;stroke:none;font-family:AnglicanText;-inkscape-font-specification:AnglicanText"
       x="26.923752"
       y="55.127083"
       id="text4053"
       sodipodi:linespacing="125%"
       transform="translate(0,952.36218)"><tspan
         sodipodi:role="line"
         id="tspan4055"
         x="26.923752"
         y="55.127083" /></text>
  </g>
</svg>
